<svg id="Layer_1" data-name="Layer 1" xmlns="http://www.w3.org/2000/svg" viewBox="0 0 250 110"><defs><style>.cls-1{fill:#fff;}.cls-2,.cls-3{fill:none;stroke:#fff;stroke-linecap:round;stroke-miterlimit:10;}.cls-2{stroke-width:3px;}</style></defs><title>_</title><path class="cls-1" d="M102.51,5h2.62v7.72h3.75v2.2h-6.37V5Z"/><path class="cls-1" d="M110.7,5h6.4v2.2h-3.78V8.74h3.23v2.2h-3.23v1.77h3.93v2.2H110.7V5Z"/><path class="cls-1" d="M124.51,12.8h-2.78l-0.49,2.1h-2.68l3-9.91h3.17l3,9.91H125Zm-0.47-2-0.17-.69q-0.18-.72-0.37-1.56t-0.37-1.59h-0.06q-0.17.76-.34,1.59t-0.36,1.55l-0.17.69H124Z"/><path class="cls-1" d="M134.55,14.9l-1.71-3.32h-1V14.9h-2.62V5H133a7.36,7.36,0,0,1,1.52.15,3.54,3.54,0,0,1,1.27.52,2.62,2.62,0,0,1,.86,1,3.34,3.34,0,0,1,.32,1.55A3.31,3.31,0,0,1,136.5,10a3.07,3.07,0,0,1-1.17,1.1l2.15,3.84h-2.93Zm-2.71-5.4h0.95q1.59,0,1.59-1.31a1,1,0,0,0-.4-0.88,2.32,2.32,0,0,0-1.18-.24h-0.95V9.51Z"/><path class="cls-1" d="M139.11,5h2.68L144,9.41l0.95,2.23H145q0-.4-0.11-0.87t-0.11-1q0-.5-0.08-1t0-1V5h2.5V14.9h-2.68l-2.2-4.44-0.95-2.21h-0.06q0.09,0.85.21,1.86a16,16,0,0,1,.12,1.92V14.9h-2.5V5Z"/><path class="cls-2" d="M90,15H16a1,1,0,0,0-1,1V94a1,1,0,0,0,1,1H65"/><path class="cls-2" d="M90,5H8A3,3,0,0,0,5,8v94a3,3,0,0,0,3,3H65"/><path class="cls-2" d="M160,15h74a1,1,0,0,1,1,1V94a1,1,0,0,1-1,1H185"/><path class="cls-2" d="M160,5h82a3,3,0,0,1,3,3v94a3,3,0,0,1-3,3H185"/><path class="cls-1" d="M99.88,95.09h2.62v3.69h3V95.09h2.62V105h-2.62v-3.93h-3V105H99.88V95.09Z"/><path class="cls-1" d="M115.46,102.9h-2.78L112.2,105h-2.68l3-9.91h3.17l3,9.91H116Zm-0.47-2-0.17-.69q-0.18-.72-0.37-1.56T114.09,97H114q-0.17.76-.34,1.59t-0.36,1.55l-0.17.69H115Z"/><path class="cls-1" d="M125.51,105l-1.71-3.32h-1V105h-2.62V95.09h3.75a7.36,7.36,0,0,1,1.52.15,3.54,3.54,0,0,1,1.27.52,2.62,2.62,0,0,1,.86,1,3.34,3.34,0,0,1,.32,1.55,3.31,3.31,0,0,1-.43,1.77,3.07,3.07,0,0,1-1.17,1.1l2.15,3.84h-2.93Zm-2.71-5.4h0.95q1.59,0,1.59-1.31a1,1,0,0,0-.4-0.88,2.32,2.32,0,0,0-1.18-.24h-0.95V99.6Z"/><path class="cls-1" d="M130.06,95.09H133a7.35,7.35,0,0,1,2.07.27,4.14,4.14,0,0,1,1.61.87,4,4,0,0,1,1,1.52,6,6,0,0,1,.37,2.24,6.25,6.25,0,0,1-.37,2.26,4.07,4.07,0,0,1-1,1.56,4.16,4.16,0,0,1-1.57.9,6.47,6.47,0,0,1-2,.29h-3.08V95.09Zm2.78,7.81a3.79,3.79,0,0,0,1-.13,1.92,1.92,0,0,0,.82-0.45,2.16,2.16,0,0,0,.54-0.88,4.4,4.4,0,0,0,.2-1.43,4.26,4.26,0,0,0-.2-1.42,2,2,0,0,0-.54-0.85,1.87,1.87,0,0,0-.82-0.42,4.27,4.27,0,0,0-1-.11h-0.15v5.7h0.15Z"/><path class="cls-1" d="M142.72,95.09h2.68L146,99.42q0.08,0.78.17,1.56t0.17,1.56h0.06l0.27-1.56,0.27-1.56,0.95-4.33H150L151,99.42q0.14,0.75.27,1.53l0.27,1.58h0.06q0.08-.79.17-1.57t0.17-1.54l0.55-4.33H155L153.34,105H150l-0.76-3.93q-0.12-.58-0.21-1.17l-0.16-1.14h-0.06l-0.16,1.14q-0.08.59-.21,1.17L147.72,105h-3.26Z"/><path class="cls-1" d="M161.23,102.9h-2.78L158,105h-2.68l3-9.91h3.17l3,9.91h-2.78Zm-0.47-2-0.17-.69q-0.18-.72-0.37-1.56T159.86,97H159.8q-0.17.76-.34,1.59t-0.36,1.55l-0.17.69h1.83Z"/><path class="cls-1" d="M167.06,101.58l-3-6.5h2.81l0.73,2.07q0.18,0.56.37,1.1l0.38,1.11h0.06l0.39-1.11,0.39-1.1,0.73-2.07h2.75l-3,6.5V105h-2.62v-3.42Z"/><path class="cls-1" d="M79.61,97.29H78L78.23,96h4.88l-0.26,1.34H81.21l-1,5.16h-1.6Z"/><path class="cls-1" d="M84.13,96h1.6l-0.5,2.44h1.94L87.65,96h1.6l-1.3,6.5h-1.6l0.54-2.66H85l-0.52,2.66h-1.6Z"/><path class="cls-1" d="M90.77,96h4l-0.26,1.34H92.09l-0.22,1.14h2l-0.26,1.34h-2l-0.28,1.34h2.46l-0.26,1.34H89.47Z"/><line class="cls-3" x1="77.81" y1="104.5" x2="93.81" y2="104.5"/><path class="cls-1" d="M78.33,51.81L75.08,45.7H73v6.11H69.16v-17h6.11a11.83,11.83,0,0,1,2.54.26,5.78,5.78,0,0,1,2.07.87,4.36,4.36,0,0,1,1.4,1.63,5.5,5.5,0,0,1,.52,2.52A5.38,5.38,0,0,1,81,43.22,5,5,0,0,1,78.78,45l3.85,6.79H78.33ZM73,42.66h2a3.6,3.6,0,0,0,2.3-.64A2.27,2.27,0,0,0,78,40.14a1.89,1.89,0,0,0-.79-1.74A4.39,4.39,0,0,0,75,37.9H73v4.76Z"/><path class="cls-1" d="M86.08,34.86H96.69v3.22H89.9v3.41h5.77v3.2H89.9v3.9h7v3.22H86.08v-17Z"/><path class="cls-1" d="M100.08,43.44a10,10,0,0,1,.66-3.76,8.34,8.34,0,0,1,1.79-2.79,7.61,7.61,0,0,1,2.65-1.74,8.77,8.77,0,0,1,3.24-.6,6.71,6.71,0,0,1,3.11.68,8.17,8.17,0,0,1,2.15,1.53l-2.11,2.37a5.25,5.25,0,0,0-1.31-.94,4.06,4.06,0,0,0-1.78-.34,4.27,4.27,0,0,0-1.81.38,4.09,4.09,0,0,0-1.42,1.08,4.93,4.93,0,0,0-.92,1.72,7.48,7.48,0,0,0-.32,2.29,6.25,6.25,0,0,0,1.18,4.07,4.35,4.35,0,0,0,3.57,1.44,4,4,0,0,0,1-.13,2.06,2.06,0,0,0,.81-0.39V45.39h-2.81V42.27H114v7.8a7.58,7.58,0,0,1-2.39,1.46,8.68,8.68,0,0,1-3.28.6,9.08,9.08,0,0,1-3.21-.56,7.39,7.39,0,0,1-2.61-1.65,7.61,7.61,0,0,1-1.75-2.72A10.24,10.24,0,0,1,100.08,43.44Z"/><path class="cls-1" d="M118.21,34.86h3.85v9.49a6,6,0,0,0,.75,3.48,2.58,2.58,0,0,0,2.18,1,2.65,2.65,0,0,0,2.21-1,5.8,5.8,0,0,0,.78-3.48V34.86h3.69V44q0,4.26-1.7,6.21a6.26,6.26,0,0,1-5,1.95,6.41,6.41,0,0,1-5-1.95q-1.74-2-1.74-6.21v-9.1Z"/><path class="cls-1" d="M136.45,34.86h3.82V48.59H147v3.22H136.45v-17Z"/><path class="cls-1" d="M159.64,47.78h-5.17l-1,4h-3.9l5.3-17h4.6l5.3,17h-4.06Zm-0.78-3-0.39-1.56q-0.36-1.27-.7-2.7t-0.68-2.76H157l-0.64,2.77Q156,42,155.66,43.23l-0.42,1.56h3.61Z"/><path class="cls-1" d="M177,51.81l-3.25-6.11h-2.11v6.11h-3.82v-17h6.11a11.83,11.83,0,0,1,2.54.26,5.78,5.78,0,0,1,2.07.87,4.36,4.36,0,0,1,1.4,1.63,5.5,5.5,0,0,1,.52,2.52,5.38,5.38,0,0,1-.82,3.08,5,5,0,0,1-2.2,1.81l3.85,6.79H177Zm-5.36-9.15h2a3.6,3.6,0,0,0,2.3-.64,2.27,2.27,0,0,0,.79-1.88,1.89,1.89,0,0,0-.79-1.74,4.39,4.39,0,0,0-2.3-.49h-2v4.76Z"/><path class="cls-1" d="M41.21,57.86H51.82v3.22H45v3.41h5.77v3.2H45v3.9h7v3.22H41.21v-17Z"/><path class="cls-1" d="M59.76,66.1l-4.42-8.24H59.6l1.48,3.2q0.29,0.6.57,1.26t0.65,1.47h0.1Q62.7,63,63,62.32t0.53-1.26l1.35-3.2h4.08l-4.39,8.42,4.68,8.53H65l-1.69-3.46L62.66,70,62,68.57h-0.1q-0.29.78-.57,1.44l-0.57,1.34-1.59,3.46H55.05Z"/><path class="cls-1" d="M72.5,57.86h6.19a11.69,11.69,0,0,1,2.59.27,5.79,5.79,0,0,1,2.11.91,4.44,4.44,0,0,1,1.42,1.69,6.59,6.59,0,0,1,0,5.16,5,5,0,0,1-1.44,1.79,6.14,6.14,0,0,1-2.11,1,9.32,9.32,0,0,1-2.55.34H76.32v5.75H72.5v-17Zm6,8.16q3.12,0,3.12-2.7a2.11,2.11,0,0,0-.79-1.87,4.11,4.11,0,0,0-2.33-.55H76.32V66h2.13Z"/><path class="cls-1" d="M98.09,74.81L94.84,68.7H92.73v6.11H88.91v-17H95a11.83,11.83,0,0,1,2.54.26,5.78,5.78,0,0,1,2.07.87,4.36,4.36,0,0,1,1.4,1.63,5.5,5.5,0,0,1,.52,2.52,5.38,5.38,0,0,1-.82,3.08A5,5,0,0,1,98.53,68l3.85,6.79H98.09Zm-5.36-9.15h2A3.6,3.6,0,0,0,97,65a2.27,2.27,0,0,0,.79-1.88A1.89,1.89,0,0,0,97,61.4a4.39,4.39,0,0,0-2.3-.49h-2v4.76Z"/><path class="cls-1" d="M105.83,57.86h10.61v3.22h-6.79v3.41h5.77v3.2h-5.77v3.9h7v3.22H105.83v-17Z"/><path class="cls-1" d="M122.16,70.05a8.25,8.25,0,0,0,2,1.27,5.28,5.28,0,0,0,2.17.49,2.94,2.94,0,0,0,1.78-.44,1.42,1.42,0,0,0,.58-1.2,1.31,1.31,0,0,0-.17-0.68A1.62,1.62,0,0,0,128,69a4.65,4.65,0,0,0-.78-0.42l-1-.43-2.21-.94a6.55,6.55,0,0,1-1.26-.68,5.55,5.55,0,0,1-1.09-1,4.38,4.38,0,0,1-.77-1.3,4.62,4.62,0,0,1-.29-1.68,4.48,4.48,0,0,1,.44-2A4.88,4.88,0,0,1,122.34,59a6,6,0,0,1,1.91-1.08,7.26,7.26,0,0,1,2.43-.39,7.89,7.89,0,0,1,2.92.57,7.42,7.42,0,0,1,2.54,1.66l-2,2.42a7.42,7.42,0,0,0-1.66-1,4.71,4.71,0,0,0-1.85-.35,2.73,2.73,0,0,0-1.57.4,1.29,1.29,0,0,0-.58,1.13,1.11,1.11,0,0,0,.19.66,1.9,1.9,0,0,0,.55.49,5.41,5.41,0,0,0,.82.42l1,0.43,2.18,0.88A6,6,0,0,1,131.74,67a4.4,4.4,0,0,1,.9,2.89A4.81,4.81,0,0,1,131,73.55a6.22,6.22,0,0,1-2,1.14,8,8,0,0,1-2.7.43,9.49,9.49,0,0,1-3.31-.61,8.65,8.65,0,0,1-3-1.83Z"/><path class="cls-1" d="M137.55,70.05a8.25,8.25,0,0,0,2,1.27,5.28,5.28,0,0,0,2.17.49,2.94,2.94,0,0,0,1.78-.44,1.42,1.42,0,0,0,.58-1.2,1.31,1.31,0,0,0-.17-0.68,1.62,1.62,0,0,0-.49-0.51,4.65,4.65,0,0,0-.78-0.42l-1-.43-2.21-.94a6.55,6.55,0,0,1-1.26-.68,5.55,5.55,0,0,1-1.09-1,4.38,4.38,0,0,1-.77-1.3,4.62,4.62,0,0,1-.29-1.68,4.48,4.48,0,0,1,.44-2A4.88,4.88,0,0,1,137.73,59a6,6,0,0,1,1.91-1.08,7.26,7.26,0,0,1,2.43-.39,7.89,7.89,0,0,1,2.92.57,7.42,7.42,0,0,1,2.54,1.66l-2,2.42a7.42,7.42,0,0,0-1.66-1,4.71,4.71,0,0,0-1.85-.35,2.73,2.73,0,0,0-1.57.4,1.29,1.29,0,0,0-.58,1.13,1.11,1.11,0,0,0,.19.66,1.9,1.9,0,0,0,.55.49,5.41,5.41,0,0,0,.82.42l1,0.43,2.18,0.88A6,6,0,0,1,147.13,67a4.4,4.4,0,0,1,.9,2.89,4.81,4.81,0,0,1-1.68,3.68,6.22,6.22,0,0,1-2,1.14,8,8,0,0,1-2.7.43,9.49,9.49,0,0,1-3.31-.61,8.65,8.65,0,0,1-3-1.83Z"/><path class="cls-1" d="M151.86,57.86h3.82v17h-3.82v-17Z"/><path class="cls-1" d="M167.5,75.12a7.83,7.83,0,0,1-3.13-.61,6.81,6.81,0,0,1-2.43-1.75A8.06,8.06,0,0,1,160.36,70a11.47,11.47,0,0,1-.56-3.72,11.35,11.35,0,0,1,.56-3.71,7.67,7.67,0,0,1,1.57-2.73,6.75,6.75,0,0,1,2.43-1.69,8.68,8.68,0,0,1,6.27,0,6.68,6.68,0,0,1,2.43,1.7,7.8,7.8,0,0,1,1.57,2.74,11.28,11.28,0,0,1,.56,3.68,11.48,11.48,0,0,1-.56,3.72,8.07,8.07,0,0,1-1.57,2.78,6.81,6.81,0,0,1-2.43,1.75A7.83,7.83,0,0,1,167.5,75.12Zm0-3.3a3.17,3.17,0,0,0,2.76-1.5,7.15,7.15,0,0,0,1-4.07,6.79,6.79,0,0,0-1-4,3.37,3.37,0,0,0-5.51,0,6.79,6.79,0,0,0-1,4,7.15,7.15,0,0,0,1,4.07A3.16,3.16,0,0,0,167.5,71.82Z"/><path class="cls-1" d="M179.28,57.86h3.93l4.42,8.42L189.29,70h0.1q-0.13-1.35-.3-3a31.41,31.41,0,0,1-.17-3.17v-6h3.64v17h-3.93l-4.42-8.45-1.66-3.69h-0.1q0.13,1.4.3,3a30.05,30.05,0,0,1,.17,3.12v6h-3.64v-17Z"/><path class="cls-1" d="M198.39,70.05a8.25,8.25,0,0,0,2,1.27,5.28,5.28,0,0,0,2.17.49,2.94,2.94,0,0,0,1.78-.44,1.42,1.42,0,0,0,.58-1.2,1.31,1.31,0,0,0-.17-0.68,1.62,1.62,0,0,0-.49-0.51,4.65,4.65,0,0,0-.78-0.42l-1-.43-2.21-.94a6.55,6.55,0,0,1-1.26-.68,5.55,5.55,0,0,1-1.09-1,4.38,4.38,0,0,1-.77-1.3,4.62,4.62,0,0,1-.29-1.68,4.48,4.48,0,0,1,.44-2A4.88,4.88,0,0,1,198.57,59a6,6,0,0,1,1.91-1.08,7.26,7.26,0,0,1,2.43-.39,7.89,7.89,0,0,1,2.92.57,7.42,7.42,0,0,1,2.54,1.66l-2,2.42a7.42,7.42,0,0,0-1.66-1,4.71,4.71,0,0,0-1.85-.35,2.73,2.73,0,0,0-1.57.4,1.29,1.29,0,0,0-.58,1.13,1.11,1.11,0,0,0,.19.66,1.9,1.9,0,0,0,.55.49,5.41,5.41,0,0,0,.82.42l1,0.43,2.18,0.88A6,6,0,0,1,208,67a4.4,4.4,0,0,1,.9,2.89,4.81,4.81,0,0,1-1.68,3.68,6.22,6.22,0,0,1-2,1.14,8,8,0,0,1-2.7.43,9.49,9.49,0,0,1-3.31-.61,8.65,8.65,0,0,1-3-1.83Z"/></svg>