<svg id="Layer_1" data-name="Layer 1" xmlns="http://www.w3.org/2000/svg" viewBox="0 0 250 110"><defs><style>.cls-1{fill:#fff;}.cls-2,.cls-3{fill:none;stroke:#fff;stroke-linecap:round;stroke-miterlimit:10;}.cls-2{stroke-width:3px;}</style></defs><title>_</title><path class="cls-1" d="M92.75,54.44a10.19,10.19,0,0,1,.65-3.76,8.39,8.39,0,0,1,1.75-2.79,7.45,7.45,0,0,1,2.57-1.74,8.17,8.17,0,0,1,3.11-.6,6.18,6.18,0,0,1,2.87.66,8.16,8.16,0,0,1,2.15,1.55l-2.11,2.37a5.94,5.94,0,0,0-1.31-.94,3.37,3.37,0,0,0-1.55-.34,3.69,3.69,0,0,0-1.65.38,4,4,0,0,0-1.34,1.08A5.19,5.19,0,0,0,97,52a7.48,7.48,0,0,0-.32,2.29,6.51,6.51,0,0,0,1.12,4.07,3.59,3.59,0,0,0,3,1.44,3.81,3.81,0,0,0,1.82-.42,5.26,5.26,0,0,0,1.4-1.09l2.11,2.31a6.85,6.85,0,0,1-5.38,2.5,8.55,8.55,0,0,1-3.09-.56,7.21,7.21,0,0,1-2.55-1.65,7.66,7.66,0,0,1-1.72-2.72A10.44,10.44,0,0,1,92.75,54.44Z"/><path class="cls-1" d="M116,63.12a7.83,7.83,0,0,1-3.13-.61,6.81,6.81,0,0,1-2.43-1.75A8.06,8.06,0,0,1,108.85,58a11.47,11.47,0,0,1-.56-3.72,11.35,11.35,0,0,1,.56-3.71,7.67,7.67,0,0,1,1.57-2.73,6.75,6.75,0,0,1,2.43-1.69,8.68,8.68,0,0,1,6.27,0,6.68,6.68,0,0,1,2.43,1.7,7.8,7.8,0,0,1,1.57,2.74,11.28,11.28,0,0,1,.56,3.68,11.48,11.48,0,0,1-.56,3.72,8.07,8.07,0,0,1-1.57,2.78,6.81,6.81,0,0,1-2.43,1.75A7.83,7.83,0,0,1,116,63.12Zm0-3.3a3.17,3.17,0,0,0,2.76-1.5,7.15,7.15,0,0,0,1-4.07,6.79,6.79,0,0,0-1-4,3.37,3.37,0,0,0-5.51,0,6.79,6.79,0,0,0-1,4,7.15,7.15,0,0,0,1,4.07A3.16,3.16,0,0,0,116,59.82Z"/><path class="cls-1" d="M127.77,45.86h4.78a11.61,11.61,0,0,1,3.51.49,7,7,0,0,1,2.68,1.52,6.68,6.68,0,0,1,1.72,2.61,10.7,10.7,0,0,1,.6,3.77,10.91,10.91,0,0,1-.6,3.8,7,7,0,0,1-1.69,2.67,6.94,6.94,0,0,1-2.61,1.57,10.44,10.44,0,0,1-3.39.52h-5v-17Zm4.55,13.86a6.41,6.41,0,0,0,2-.29,3.64,3.64,0,0,0,1.51-.92,4.33,4.33,0,0,0,1-1.68,8.13,8.13,0,0,0,.35-2.57,7.92,7.92,0,0,0-.35-2.54,4.11,4.11,0,0,0-1-1.64,3.54,3.54,0,0,0-1.51-.87,7,7,0,0,0-2-.26h-0.73V59.72h0.73Z"/><path class="cls-1" d="M145.16,45.86h10.61v3.22H149v3.41h5.77v3.2H149v3.9h7v3.22H145.16v-17Z"/><path class="cls-1" d="M102.51,5h2.62v7.72h3.75v2.2h-6.37V5Z"/><path class="cls-1" d="M110.7,5h6.4v2.2h-3.78V8.74h3.23v2.2h-3.23v1.77h3.93v2.2H110.7V5Z"/><path class="cls-1" d="M124.51,12.8h-2.78l-0.49,2.1h-2.68l3-9.91h3.17l3,9.91H125Zm-0.47-2-0.17-.69q-0.18-.72-0.37-1.56t-0.37-1.59h-0.06q-0.17.76-.34,1.59t-0.36,1.55l-0.17.69H124Z"/><path class="cls-1" d="M134.55,14.9l-1.71-3.32h-1V14.9h-2.62V5H133a7.36,7.36,0,0,1,1.52.15,3.54,3.54,0,0,1,1.27.52,2.62,2.62,0,0,1,.86,1,3.34,3.34,0,0,1,.32,1.55A3.31,3.31,0,0,1,136.5,10a3.07,3.07,0,0,1-1.17,1.1l2.15,3.84h-2.93Zm-2.71-5.4h0.95q1.59,0,1.59-1.31a1,1,0,0,0-.4-0.88,2.32,2.32,0,0,0-1.18-.24h-0.95V9.51Z"/><path class="cls-1" d="M139.11,5h2.68L144,9.41l0.95,2.23H145q0-.4-0.11-0.87t-0.11-1q0-.5-0.08-1t0-1V5h2.5V14.9h-2.68l-2.2-4.44-0.95-2.21h-0.06q0.09,0.85.21,1.86a16,16,0,0,1,.12,1.92V14.9h-2.5V5Z"/><path class="cls-2" d="M90,15H16a1,1,0,0,0-1,1V94a1,1,0,0,0,1,1H65"/><path class="cls-2" d="M90,5H8A3,3,0,0,0,5,8v94a3,3,0,0,0,3,3H65"/><path class="cls-2" d="M160,15h74a1,1,0,0,1,1,1V94a1,1,0,0,1-1,1H185"/><path class="cls-2" d="M160,5h82a3,3,0,0,1,3,3v94a3,3,0,0,1-3,3H185"/><path class="cls-1" d="M99.88,95.09h2.62v3.69h3V95.09h2.62V105h-2.62v-3.93h-3V105H99.88V95.09Z"/><path class="cls-1" d="M115.46,102.9h-2.78L112.2,105h-2.68l3-9.91h3.17l3,9.91H116Zm-0.47-2-0.17-.69q-0.18-.72-0.37-1.56T114.09,97H114q-0.17.76-.34,1.59t-0.36,1.55l-0.17.69H115Z"/><path class="cls-1" d="M125.51,105l-1.71-3.32h-1V105h-2.62V95.09h3.75a7.36,7.36,0,0,1,1.52.15,3.54,3.54,0,0,1,1.27.52,2.62,2.62,0,0,1,.86,1,3.34,3.34,0,0,1,.32,1.55,3.31,3.31,0,0,1-.43,1.77,3.07,3.07,0,0,1-1.17,1.1l2.15,3.84h-2.93Zm-2.71-5.4h0.95q1.59,0,1.59-1.31a1,1,0,0,0-.4-0.88,2.32,2.32,0,0,0-1.18-.24h-0.95V99.6Z"/><path class="cls-1" d="M130.06,95.09H133a7.35,7.35,0,0,1,2.07.27,4.14,4.14,0,0,1,1.61.87,4,4,0,0,1,1,1.52,6,6,0,0,1,.37,2.24,6.25,6.25,0,0,1-.37,2.26,4.07,4.07,0,0,1-1,1.56,4.16,4.16,0,0,1-1.57.9,6.47,6.47,0,0,1-2,.29h-3.08V95.09Zm2.78,7.81a3.79,3.79,0,0,0,1-.13,1.92,1.92,0,0,0,.82-0.45,2.16,2.16,0,0,0,.54-0.88,4.4,4.4,0,0,0,.2-1.43,4.26,4.26,0,0,0-.2-1.42,2,2,0,0,0-.54-0.85,1.87,1.87,0,0,0-.82-0.42,4.27,4.27,0,0,0-1-.11h-0.15v5.7h0.15Z"/><path class="cls-1" d="M142.72,95.09h2.68L146,99.42q0.08,0.78.17,1.56t0.17,1.56h0.06l0.27-1.56,0.27-1.56,0.95-4.33H150L151,99.42q0.14,0.75.27,1.53l0.27,1.58h0.06q0.08-.79.17-1.57t0.17-1.54l0.55-4.33H155L153.34,105H150l-0.76-3.93q-0.12-.58-0.21-1.17l-0.16-1.14h-0.06l-0.16,1.14q-0.08.59-.21,1.17L147.72,105h-3.26Z"/><path class="cls-1" d="M161.23,102.9h-2.78L158,105h-2.68l3-9.91h3.17l3,9.91h-2.78Zm-0.47-2-0.17-.69q-0.18-.72-0.37-1.56T159.86,97H159.8q-0.17.76-.34,1.59t-0.36,1.55l-0.17.69h1.83Z"/><path class="cls-1" d="M167.06,101.58l-3-6.5h2.81l0.73,2.07q0.18,0.56.37,1.1l0.38,1.11h0.06l0.39-1.11,0.39-1.1,0.73-2.07h2.75l-3,6.5V105h-2.62v-3.42Z"/><path class="cls-1" d="M79.61,97.29H78L78.23,96h4.88l-0.26,1.34H81.21l-1,5.16h-1.6Z"/><path class="cls-1" d="M84.13,96h1.6l-0.5,2.44h1.94L87.65,96h1.6l-1.3,6.5h-1.6l0.54-2.66H85l-0.52,2.66h-1.6Z"/><path class="cls-1" d="M90.77,96h4l-0.26,1.34H92.09l-0.22,1.14h2l-0.26,1.34h-2l-0.28,1.34h2.46l-0.26,1.34H89.47Z"/><line class="cls-3" x1="77.81" y1="104.5" x2="93.81" y2="104.5"/></svg>