<svg xmlns="http://www.w3.org/2000/svg" xmlns:xlink="http://www.w3.org/1999/xlink" viewBox="0 0 200 200"><defs><pattern id="a" y="-1900" width="200" height="200" patternUnits="userSpaceOnUse" viewBox="0 0 200 200"><rect width="200" height="200" fill="none"/><rect width="200" height="200" fill="#f08f28"/><path d="M111.88,83.816l8.651-8.651-8.651-8.651a16.8,16.8,0,0,0-23.761,0l-8.651,8.651,8.651,8.651A16.8,16.8,0,0,0,111.88,83.816Z" fill="#f29b2a"/><path d="M100,67.4a7.769,7.769,0,1,0,7.769,7.769A7.769,7.769,0,0,0,100,67.4Zm0,10.921a3.152,3.152,0,1,1,3.152-3.152A3.152,3.152,0,0,1,100,78.317Z" fill="#f08f28"/><path d="M111.88,33.492l8.651-8.651L111.88,16.19a16.8,16.8,0,0,0-23.761,0l-8.651,8.651,8.651,8.651A16.8,16.8,0,0,0,111.88,33.492Z" fill="#f29b2a"/><path d="M100,17.072a7.769,7.769,0,1,0,7.769,7.769A7.769,7.769,0,0,0,100,17.072Zm0,10.921a3.152,3.152,0,1,1,3.152-3.152A3.152,3.152,0,0,1,100,27.993Z" fill="#f08f28"/><path d="M66.187,61.883l8.651,8.651,8.651-8.651a16.8,16.8,0,0,0,0-23.761l-8.651-8.651-8.651,8.651A16.8,16.8,0,0,0,66.187,61.883Z" fill="#f29b2a"/><path d="M82.607,50a7.769,7.769,0,1,0-7.769,7.769A7.769,7.769,0,0,0,82.607,50ZM71.686,50a3.152,3.152,0,1,1,3.152,3.152A3.152,3.152,0,0,1,71.686,50Z" fill="#f08f28"/><path d="M116.511,61.883l8.651,8.651,8.651-8.651a16.8,16.8,0,0,0,0-23.761l-8.651-8.651-8.651,8.651A16.8,16.8,0,0,0,116.511,61.883Z" fill="#f29b2a"/><path d="M132.931,50a7.769,7.769,0,1,0-7.769,7.769A7.769,7.769,0,0,0,132.931,50ZM122.01,50a3.152,3.152,0,1,1,3.152,3.152A3.152,3.152,0,0,1,122.01,50Z" fill="#f08f28"/><path d="M100,42.234A7.769,7.769,0,1,0,107.769,50,7.769,7.769,0,0,0,100,42.234Zm0,10.921A3.152,3.152,0,1,1,103.152,50,3.152,3.152,0,0,1,100,53.155Z" fill="#f2972c"/><path d="M111.88,183.81l8.651-8.651-8.651-8.651a16.8,16.8,0,0,0-23.761,0l-8.651,8.651,8.651,8.651A16.8,16.8,0,0,0,111.88,183.81Z" fill="#f29b2a"/><path d="M100,167.39a7.769,7.769,0,1,0,7.769,7.769A7.769,7.769,0,0,0,100,167.39Zm0,10.921a3.152,3.152,0,1,1,3.152-3.152A3.152,3.152,0,0,1,100,178.311Z" fill="#f08f28"/><path d="M111.88,133.486l8.651-8.651-8.651-8.651a16.8,16.8,0,0,0-23.761,0l-8.651,8.651,8.651,8.651A16.8,16.8,0,0,0,111.88,133.486Z" fill="#f29b2a"/><path d="M100,117.066a7.769,7.769,0,1,0,7.769,7.769A7.769,7.769,0,0,0,100,117.066Zm0,10.921a3.152,3.152,0,1,1,3.152-3.152A3.152,3.152,0,0,1,100,127.987Z" fill="#f08f28"/><path d="M66.187,161.877l8.651,8.651,8.651-8.651a16.8,16.8,0,0,0,0-23.761l-8.651-8.651-8.651,8.651A16.8,16.8,0,0,0,66.187,161.877Z" fill="#f29b2a"/><path d="M82.607,150a7.769,7.769,0,1,0-7.769,7.769A7.769,7.769,0,0,0,82.607,150Zm-10.921,0a3.152,3.152,0,1,1,3.152,3.152A3.152,3.152,0,0,1,71.686,150Z" fill="#f08f28"/><path d="M116.511,161.877l8.651,8.651,8.651-8.651a16.8,16.8,0,0,0,0-23.761l-8.651-8.651-8.651,8.651A16.8,16.8,0,0,0,116.511,161.877Z" fill="#f29b2a"/><path d="M132.931,150a7.769,7.769,0,1,0-7.769,7.769A7.769,7.769,0,0,0,132.931,150Zm-10.921,0a3.152,3.152,0,1,1,3.152,3.152A3.152,3.152,0,0,1,122.01,150Z" fill="#f08f28"/><path d="M100,142.228A7.769,7.769,0,1,0,107.769,150,7.769,7.769,0,0,0,100,142.228Zm0,10.921A3.152,3.152,0,1,1,103.152,150,3.152,3.152,0,0,1,100,153.149Z" fill="#f2972c"/><path d="M161.877,133.813l8.651-8.651-8.651-8.651a16.8,16.8,0,0,0-23.761,0l-8.651,8.651,8.651,8.651A16.8,16.8,0,0,0,161.877,133.813Z" fill="#f29b2a"/><path d="M150,117.393a7.769,7.769,0,1,0,7.769,7.769A7.769,7.769,0,0,0,150,117.393Zm0,10.921a3.152,3.152,0,1,1,3.152-3.152A3.152,3.152,0,0,1,150,128.314Z" fill="#f08f28"/><path d="M161.877,83.489l8.651-8.651-8.651-8.651a16.8,16.8,0,0,0-23.761,0l-8.651,8.651,8.651,8.651A16.8,16.8,0,0,0,161.877,83.489Z" fill="#f29b2a"/><path d="M150,67.069a7.769,7.769,0,1,0,7.769,7.769A7.769,7.769,0,0,0,150,67.069Zm0,10.921a3.152,3.152,0,1,1,3.152-3.152A3.152,3.152,0,0,1,150,77.99Z" fill="#f08f28"/><path d="M116.184,111.88l8.651,8.651,8.651-8.651a16.8,16.8,0,0,0,0-23.761l-8.651-8.651-8.651,8.651A16.8,16.8,0,0,0,116.184,111.88Z" fill="#f29b2a"/><path d="M132.6,100a7.769,7.769,0,1,0-7.769,7.769A7.769,7.769,0,0,0,132.6,100Zm-10.921,0a3.152,3.152,0,1,1,3.152,3.152A3.152,3.152,0,0,1,121.683,100Z" fill="#f08f28"/><path d="M166.508,111.88l8.651,8.651,8.651-8.651a16.8,16.8,0,0,0,0-23.761l-8.651-8.651-8.651,8.651A16.8,16.8,0,0,0,166.508,111.88Z" fill="#f29b2a"/><path d="M182.928,100a7.769,7.769,0,1,0-7.769,7.769A7.769,7.769,0,0,0,182.928,100Zm-10.921,0a3.152,3.152,0,1,1,3.152,3.152A3.152,3.152,0,0,1,172.007,100Z" fill="#f08f28"/><path d="M150,92.231A7.769,7.769,0,1,0,157.766,100,7.769,7.769,0,0,0,150,92.231Zm0,10.921A3.152,3.152,0,1,1,153.149,100,3.152,3.152,0,0,1,150,103.152Z" fill="#f2972c"/><path d="M61.883,133.813l8.651-8.651-8.651-8.651a16.8,16.8,0,0,0-23.761,0l-8.651,8.651,8.651,8.651A16.8,16.8,0,0,0,61.883,133.813Z" fill="#f29b2a"/><path d="M50,117.393a7.769,7.769,0,1,0,7.769,7.769A7.769,7.769,0,0,0,50,117.393Zm0,10.921a3.152,3.152,0,1,1,3.152-3.152A3.152,3.152,0,0,1,50,128.314Z" fill="#f08f28"/><path d="M61.883,83.489l8.651-8.651-8.651-8.651a16.8,16.8,0,0,0-23.761,0l-8.651,8.651,8.651,8.651A16.8,16.8,0,0,0,61.883,83.489Z" fill="#f29b2a"/><path d="M50,67.069a7.769,7.769,0,1,0,7.769,7.769A7.769,7.769,0,0,0,50,67.069ZM50,77.99a3.152,3.152,0,1,1,3.152-3.152A3.152,3.152,0,0,1,50,77.99Z" fill="#f08f28"/><path d="M16.19,111.88l8.651,8.651,8.651-8.651a16.8,16.8,0,0,0,0-23.761l-8.651-8.651L16.19,88.12A16.8,16.8,0,0,0,16.19,111.88Z" fill="#f29b2a"/><path d="M32.61,100a7.769,7.769,0,1,0-7.769,7.769A7.769,7.769,0,0,0,32.61,100Zm-10.921,0a3.152,3.152,0,1,1,3.152,3.152A3.152,3.152,0,0,1,21.689,100Z" fill="#f08f28"/><path d="M66.514,111.88l8.651,8.651,8.651-8.651a16.8,16.8,0,0,0,0-23.761l-8.651-8.651L66.514,88.12A16.8,16.8,0,0,0,66.514,111.88Z" fill="#f29b2a"/><path d="M82.934,100a7.769,7.769,0,1,0-7.769,7.769A7.769,7.769,0,0,0,82.934,100Zm-10.921,0a3.152,3.152,0,1,1,3.152,3.152A3.152,3.152,0,0,1,72.013,100Z" fill="#f08f28"/><path d="M50,92.231A7.769,7.769,0,1,0,57.772,100,7.769,7.769,0,0,0,50,92.231Zm0,10.921A3.152,3.152,0,1,1,53.155,100,3.152,3.152,0,0,1,50,103.152Z" fill="#f2972c"/><circle cx="100" cy="100" r="4.929" fill="#f2972c"/><circle cx="149.997" cy="149.997" r="4.929" fill="#f2972c"/><circle cx="50.003" cy="50.003" r="4.929" fill="#f2972c"/><circle cx="149.997" cy="50.003" r="4.929" fill="#f2972c"/><circle cx="50.003" cy="149.997" r="4.929" fill="#f2972c"/><path d="M211.874,183.81l8.651-8.651-8.651-8.651a16.8,16.8,0,0,0-23.761,0l-8.651,8.651,8.651,8.651A16.8,16.8,0,0,0,211.874,183.81Z" fill="#f29b2a"/><path d="M199.994,167.39a7.769,7.769,0,1,0,7.769,7.769A7.769,7.769,0,0,0,199.994,167.39Zm0,10.921a3.152,3.152,0,1,1,3.152-3.152A3.152,3.152,0,0,1,199.994,178.311Z" fill="#f08f28"/><path d="M211.874,133.486l8.651-8.651-8.651-8.651a16.8,16.8,0,0,0-23.761,0l-8.651,8.651,8.651,8.651A16.8,16.8,0,0,0,211.874,133.486Z" fill="#f29b2a"/><path d="M199.994,117.066a7.769,7.769,0,1,0,7.769,7.769A7.769,7.769,0,0,0,199.994,117.066Zm0,10.921a3.152,3.152,0,1,1,3.152-3.152A3.152,3.152,0,0,1,199.994,127.987Z" fill="#f08f28"/><path d="M166.181,161.877l8.651,8.651,8.651-8.651a16.8,16.8,0,0,0,0-23.761l-8.651-8.651-8.651,8.651A16.8,16.8,0,0,0,166.181,161.877Z" fill="#f29b2a"/><path d="M182.6,150a7.769,7.769,0,1,0-7.769,7.769A7.769,7.769,0,0,0,182.6,150Zm-10.921,0a3.152,3.152,0,1,1,3.152,3.152A3.152,3.152,0,0,1,171.68,150Z" fill="#f08f28"/><path d="M216.505,161.877l8.651,8.651,8.651-8.651a16.8,16.8,0,0,0,0-23.761l-8.651-8.651-8.651,8.651A16.8,16.8,0,0,0,216.505,161.877Z" fill="#f29b2a"/><path d="M232.925,150a7.769,7.769,0,1,0-7.769,7.769A7.769,7.769,0,0,0,232.925,150ZM222,150a3.152,3.152,0,1,1,3.152,3.152A3.152,3.152,0,0,1,222,150Z" fill="#f08f28"/><path d="M199.994,142.228A7.769,7.769,0,1,0,207.763,150,7.769,7.769,0,0,0,199.994,142.228Zm0,10.921A3.152,3.152,0,1,1,203.146,150,3.152,3.152,0,0,1,199.994,153.149Z" fill="#f2972c"/><path d="M211.874,283.8l8.651-8.651-8.651-8.651a16.8,16.8,0,0,0-23.761,0l-8.651,8.651,8.651,8.651A16.8,16.8,0,0,0,211.874,283.8Z" fill="#f29b2a"/><path d="M199.994,267.384a7.769,7.769,0,1,0,7.769,7.769A7.769,7.769,0,0,0,199.994,267.384Zm0,10.921a3.152,3.152,0,1,1,3.152-3.152A3.152,3.152,0,0,1,199.994,278.3Z" fill="#f08f28"/><path d="M211.874,233.48l8.651-8.651-8.651-8.651a16.8,16.8,0,0,0-23.761,0l-8.651,8.651,8.651,8.651A16.8,16.8,0,0,0,211.874,233.48Z" fill="#f29b2a"/><path d="M199.994,217.06a7.769,7.769,0,1,0,7.769,7.769A7.769,7.769,0,0,0,199.994,217.06Zm0,10.921a3.152,3.152,0,1,1,3.152-3.152A3.152,3.152,0,0,1,199.994,227.981Z" fill="#f08f28"/><path d="M166.181,261.871l8.651,8.651,8.651-8.651a16.8,16.8,0,0,0,0-23.761l-8.651-8.651-8.651,8.651A16.8,16.8,0,0,0,166.181,261.871Z" fill="#f29b2a"/><path d="M182.6,249.991a7.769,7.769,0,1,0-7.769,7.769A7.769,7.769,0,0,0,182.6,249.991Zm-10.921,0a3.152,3.152,0,1,1,3.152,3.152A3.152,3.152,0,0,1,171.68,249.991Z" fill="#f08f28"/><path d="M216.505,261.871l8.651,8.651,8.651-8.651a16.8,16.8,0,0,0,0-23.761l-8.651-8.651-8.651,8.651A16.8,16.8,0,0,0,216.505,261.871Z" fill="#f29b2a"/><path d="M232.925,249.991a7.769,7.769,0,1,0-7.769,7.769A7.769,7.769,0,0,0,232.925,249.991Zm-10.921,0a3.152,3.152,0,1,1,3.152,3.152A3.152,3.152,0,0,1,222,249.991Z" fill="#f08f28"/><path d="M199.994,242.222a7.769,7.769,0,1,0,7.769,7.769A7.769,7.769,0,0,0,199.994,242.222Zm0,10.921a3.152,3.152,0,1,1,3.152-3.152A3.152,3.152,0,0,1,199.994,253.143Z" fill="#f2972c"/><path d="M261.871,233.807l8.651-8.651-8.651-8.651a16.8,16.8,0,0,0-23.761,0l-8.651,8.651,8.651,8.651A16.8,16.8,0,0,0,261.871,233.807Z" fill="#f29b2a"/><path d="M249.991,217.387a7.769,7.769,0,1,0,7.769,7.769A7.769,7.769,0,0,0,249.991,217.387Zm0,10.921a3.152,3.152,0,1,1,3.152-3.152A3.152,3.152,0,0,1,249.991,228.308Z" fill="#f08f28"/><path d="M261.871,183.483l8.651-8.651-8.651-8.651a16.8,16.8,0,0,0-23.761,0l-8.651,8.651,8.651,8.651A16.8,16.8,0,0,0,261.871,183.483Z" fill="#f29b2a"/><path d="M249.991,167.063a7.769,7.769,0,1,0,7.769,7.769A7.769,7.769,0,0,0,249.991,167.063Zm0,10.921a3.152,3.152,0,1,1,3.152-3.152A3.152,3.152,0,0,1,249.991,177.984Z" fill="#f08f28"/><path d="M216.178,211.874l8.651,8.651,8.651-8.651a16.8,16.8,0,0,0,0-23.761l-8.651-8.651-8.651,8.651A16.8,16.8,0,0,0,216.178,211.874Z" fill="#f29b2a"/><path d="M232.6,199.994a7.769,7.769,0,1,0-7.769,7.769A7.769,7.769,0,0,0,232.6,199.994Zm-10.921,0a3.152,3.152,0,1,1,3.152,3.152A3.152,3.152,0,0,1,221.677,199.994Z" fill="#f08f28"/><path d="M266.5,211.874l8.651,8.651,8.651-8.651a16.8,16.8,0,0,0,0-23.761l-8.651-8.651-8.651,8.651A16.8,16.8,0,0,0,266.5,211.874Z" fill="#f29b2a"/><path d="M282.922,199.994a7.769,7.769,0,1,0-7.769,7.769A7.769,7.769,0,0,0,282.922,199.994Zm-10.921,0a3.152,3.152,0,1,1,3.152,3.152A3.152,3.152,0,0,1,272,199.994Z" fill="#f08f28"/><path d="M249.991,192.225a7.769,7.769,0,1,0,7.769,7.769A7.769,7.769,0,0,0,249.991,192.225Zm0,10.921a3.152,3.152,0,1,1,3.152-3.152A3.152,3.152,0,0,1,249.991,203.146Z" fill="#f2972c"/><path d="M161.877,233.807l8.651-8.651-8.651-8.651a16.8,16.8,0,0,0-23.761,0l-8.651,8.651,8.651,8.651A16.8,16.8,0,0,0,161.877,233.807Z" fill="#f29b2a"/><path d="M150,217.387a7.769,7.769,0,1,0,7.769,7.769A7.769,7.769,0,0,0,150,217.387Zm0,10.921a3.152,3.152,0,1,1,3.152-3.152A3.152,3.152,0,0,1,150,228.308Z" fill="#f08f28"/><path d="M161.877,183.483l8.651-8.651-8.651-8.651a16.8,16.8,0,0,0-23.761,0l-8.651,8.651,8.651,8.651A16.8,16.8,0,0,0,161.877,183.483Z" fill="#f29b2a"/><path d="M150,167.063a7.769,7.769,0,1,0,7.769,7.769A7.769,7.769,0,0,0,150,167.063Zm0,10.921a3.152,3.152,0,1,1,3.152-3.152A3.152,3.152,0,0,1,150,177.984Z" fill="#f08f28"/><path d="M116.184,211.874l8.651,8.651,8.651-8.651a16.8,16.8,0,0,0,0-23.761l-8.651-8.651-8.651,8.651A16.8,16.8,0,0,0,116.184,211.874Z" fill="#f29b2a"/><path d="M132.6,199.994a7.769,7.769,0,1,0-7.769,7.769A7.769,7.769,0,0,0,132.6,199.994Zm-10.921,0a3.152,3.152,0,1,1,3.152,3.152A3.152,3.152,0,0,1,121.683,199.994Z" fill="#f08f28"/><path d="M166.508,211.874l8.651,8.651,8.651-8.651a16.8,16.8,0,0,0,0-23.761l-8.651-8.651-8.651,8.651A16.8,16.8,0,0,0,166.508,211.874Z" fill="#f29b2a"/><path d="M182.928,199.994a7.769,7.769,0,1,0-7.769,7.769A7.769,7.769,0,0,0,182.928,199.994Zm-10.921,0a3.152,3.152,0,1,1,3.152,3.152A3.152,3.152,0,0,1,172.007,199.994Z" fill="#f08f28"/><path d="M150,192.225a7.769,7.769,0,1,0,7.769,7.769A7.769,7.769,0,0,0,150,192.225Zm0,10.921a3.152,3.152,0,1,1,3.152-3.152A3.152,3.152,0,0,1,150,203.146Z" fill="#f2972c"/><circle cx="199.994" cy="199.994" r="4.929" fill="#f2972c"/><circle cx="249.991" cy="249.991" r="4.929" fill="#f2972c"/><circle cx="149.997" cy="149.997" r="4.929" fill="#f2972c"/><circle cx="249.991" cy="149.997" r="4.929" fill="#f2972c"/><circle cx="149.997" cy="249.991" r="4.929" fill="#f2972c"/><path d="M11.874,183.81l8.651-8.651-8.651-8.651a16.8,16.8,0,0,0-23.761,0l-8.651,8.651,8.651,8.651A16.8,16.8,0,0,0,11.874,183.81Z" fill="#f29b2a"/><path d="M-0.006,167.39a7.769,7.769,0,0,0-7.769,7.769,7.769,7.769,0,0,0,7.769,7.769,7.769,7.769,0,0,0,7.769-7.769A7.769,7.769,0,0,0-.006,167.39Zm0,10.921a3.152,3.152,0,0,1-3.152-3.152,3.152,3.152,0,0,1,3.152-3.152,3.152,3.152,0,0,1,3.152,3.152A3.152,3.152,0,0,1-.006,178.311Z" fill="#f08f28"/><path d="M11.874,133.486l8.651-8.651-8.651-8.651a16.8,16.8,0,0,0-23.761,0l-8.651,8.651,8.651,8.651A16.8,16.8,0,0,0,11.874,133.486Z" fill="#f29b2a"/><path d="M-0.006,117.066a7.769,7.769,0,0,0-7.769,7.769A7.769,7.769,0,0,0-.006,132.6a7.769,7.769,0,0,0,7.769-7.769A7.769,7.769,0,0,0-.006,117.066Zm0,10.921a3.152,3.152,0,0,1-3.152-3.152,3.152,3.152,0,0,1,3.152-3.152,3.152,3.152,0,0,1,3.152,3.152A3.152,3.152,0,0,1-.006,127.987Z" fill="#f08f28"/><path d="M16.505,161.877l8.651,8.651,8.651-8.651a16.8,16.8,0,0,0,0-23.761l-8.651-8.651-8.651,8.651A16.8,16.8,0,0,0,16.505,161.877Z" fill="#f29b2a"/><path d="M32.925,150a7.769,7.769,0,1,0-7.769,7.769A7.769,7.769,0,0,0,32.925,150ZM22,150a3.152,3.152,0,1,1,3.152,3.152A3.152,3.152,0,0,1,22,150Z" fill="#f08f28"/><path d="M-0.006,142.228A7.769,7.769,0,0,0-7.775,150a7.769,7.769,0,0,0,7.769,7.769A7.769,7.769,0,0,0,7.763,150,7.769,7.769,0,0,0-.006,142.228Zm0,10.921A3.152,3.152,0,0,1-3.158,150a3.152,3.152,0,0,1,3.152-3.152A3.152,3.152,0,0,1,3.146,150,3.152,3.152,0,0,1-.006,153.149Z" fill="#f2972c"/><path d="M61.871,183.483l8.651-8.651-8.651-8.651a16.8,16.8,0,0,0-23.761,0l-8.651,8.651,8.651,8.651A16.8,16.8,0,0,0,61.871,183.483Z" fill="#f29b2a"/><path d="M49.991,167.063a7.769,7.769,0,1,0,7.769,7.769A7.769,7.769,0,0,0,49.991,167.063Zm0,10.921a3.152,3.152,0,1,1,3.152-3.152A3.152,3.152,0,0,1,49.991,177.984Z" fill="#f08f28"/><path d="M16.178,211.874l8.651,8.651,8.651-8.651a16.8,16.8,0,0,0,0-23.761l-8.651-8.651-8.651,8.651A16.8,16.8,0,0,0,16.178,211.874Z" fill="#f29b2a"/><path d="M32.6,199.994a7.769,7.769,0,1,0-7.769,7.769A7.769,7.769,0,0,0,32.6,199.994Zm-10.921,0a3.152,3.152,0,1,1,3.152,3.152A3.152,3.152,0,0,1,21.677,199.994Z" fill="#f08f28"/><path d="M66.5,211.874l8.651,8.651,8.651-8.651a16.8,16.8,0,0,0,0-23.761l-8.651-8.651L66.5,188.114A16.8,16.8,0,0,0,66.5,211.874Z" fill="#f29b2a"/><path d="M82.922,199.994a7.769,7.769,0,1,0-7.769,7.769A7.769,7.769,0,0,0,82.922,199.994Zm-10.921,0a3.152,3.152,0,1,1,3.152,3.152A3.152,3.152,0,0,1,72,199.994Z" fill="#f08f28"/><path d="M49.991,192.225a7.769,7.769,0,1,0,7.769,7.769A7.769,7.769,0,0,0,49.991,192.225Zm0,10.921a3.152,3.152,0,1,1,3.152-3.152A3.152,3.152,0,0,1,49.991,203.146Z" fill="#f2972c"/><circle cx="-0.006" cy="199.994" r="4.929" fill="#f2972c"/><circle cx="49.991" cy="149.997" r="4.929" fill="#f2972c"/><path d="M211.874,83.8l8.651-8.651L211.874,66.5a16.8,16.8,0,0,0-23.761,0l-8.651,8.651,8.651,8.651A16.8,16.8,0,0,0,211.874,83.8Z" fill="#f29b2a"/><path d="M199.994,67.384a7.769,7.769,0,1,0,7.769,7.769A7.769,7.769,0,0,0,199.994,67.384Zm0,10.921a3.152,3.152,0,1,1,3.152-3.152A3.152,3.152,0,0,1,199.994,78.3Z" fill="#f08f28"/><path d="M211.874,33.48l8.651-8.651-8.651-8.651a16.8,16.8,0,0,0-23.761,0l-8.651,8.651,8.651,8.651A16.8,16.8,0,0,0,211.874,33.48Z" fill="#f29b2a"/><path d="M199.994,17.06a7.769,7.769,0,1,0,7.769,7.769A7.769,7.769,0,0,0,199.994,17.06Zm0,10.921a3.152,3.152,0,1,1,3.152-3.152A3.152,3.152,0,0,1,199.994,27.981Z" fill="#f08f28"/><path d="M166.181,61.871l8.651,8.651,8.651-8.651a16.8,16.8,0,0,0,0-23.761l-8.651-8.651-8.651,8.651A16.8,16.8,0,0,0,166.181,61.871Z" fill="#f29b2a"/><path d="M182.6,49.991a7.769,7.769,0,1,0-7.769,7.769A7.769,7.769,0,0,0,182.6,49.991Zm-10.921,0a3.152,3.152,0,1,1,3.152,3.152A3.152,3.152,0,0,1,171.68,49.991Z" fill="#f08f28"/><path d="M199.994,42.222a7.769,7.769,0,1,0,7.769,7.769A7.769,7.769,0,0,0,199.994,42.222Zm0,10.921a3.152,3.152,0,1,1,3.152-3.152A3.152,3.152,0,0,1,199.994,53.143Z" fill="#f2972c"/><path d="M161.877,33.807l8.651-8.651-8.651-8.651a16.8,16.8,0,0,0-23.761,0l-8.651,8.651,8.651,8.651A16.8,16.8,0,0,0,161.877,33.807Z" fill="#f29b2a"/><path d="M150,17.387a7.769,7.769,0,1,0,7.769,7.769A7.769,7.769,0,0,0,150,17.387Zm0,10.921a3.152,3.152,0,1,1,3.152-3.152A3.152,3.152,0,0,1,150,28.308Z" fill="#f08f28"/><path d="M116.184,11.874l8.651,8.651,8.651-8.651a16.8,16.8,0,0,0,0-23.761l-8.651-8.651-8.651,8.651A16.8,16.8,0,0,0,116.184,11.874Z" fill="#f29b2a"/><path d="M132.6-.006a7.769,7.769,0,0,0-7.769-7.769,7.769,7.769,0,0,0-7.769,7.769,7.769,7.769,0,0,0,7.769,7.769A7.769,7.769,0,0,0,132.6-.006Zm-10.921,0a3.152,3.152,0,0,1,3.152-3.152,3.152,3.152,0,0,1,3.152,3.152,3.152,3.152,0,0,1-3.152,3.152A3.152,3.152,0,0,1,121.683-.006Z" fill="#f08f28"/><path d="M166.508,11.874l8.651,8.651,8.651-8.651a16.8,16.8,0,0,0,0-23.761l-8.651-8.651-8.651,8.651A16.8,16.8,0,0,0,166.508,11.874Z" fill="#f29b2a"/><path d="M182.928-.006a7.769,7.769,0,0,0-7.769-7.769A7.769,7.769,0,0,0,167.39-.006a7.769,7.769,0,0,0,7.769,7.769A7.769,7.769,0,0,0,182.928-.006Zm-10.921,0a3.152,3.152,0,0,1,3.152-3.152A3.152,3.152,0,0,1,178.31-.006a3.152,3.152,0,0,1-3.152,3.152A3.152,3.152,0,0,1,172.007-.006Z" fill="#f08f28"/><path d="M150-7.775a7.769,7.769,0,0,0-7.769,7.769A7.769,7.769,0,0,0,150,7.763a7.769,7.769,0,0,0,7.769-7.769A7.769,7.769,0,0,0,150-7.775Zm0,10.921a3.152,3.152,0,0,1-3.152-3.152A3.152,3.152,0,0,1,150-3.158a3.152,3.152,0,0,1,3.152,3.152A3.152,3.152,0,0,1,150,3.146Z" fill="#f2972c"/><circle cx="199.994" cy="-0.006" r="4.929" fill="#f2972c"/><circle cx="149.997" cy="49.991" r="4.929" fill="#f2972c"/><path d="M11.874,83.8l8.651-8.651L11.874,66.5a16.8,16.8,0,0,0-23.761,0l-8.651,8.651,8.651,8.651A16.8,16.8,0,0,0,11.874,83.8Z" fill="#f29b2a"/><path d="M-0.006,67.384a7.769,7.769,0,0,0-7.769,7.769A7.769,7.769,0,0,0-.006,82.922a7.769,7.769,0,0,0,7.769-7.769A7.769,7.769,0,0,0-.006,67.384Zm0,10.921a3.152,3.152,0,0,1-3.152-3.152A3.152,3.152,0,0,1-.006,72a3.152,3.152,0,0,1,3.152,3.152A3.152,3.152,0,0,1-.006,78.3Z" fill="#f08f28"/><path d="M11.874,33.48l8.651-8.651-8.651-8.651a16.8,16.8,0,0,0-23.761,0l-8.651,8.651,8.651,8.651A16.8,16.8,0,0,0,11.874,33.48Z" fill="#f29b2a"/><path d="M-0.006,17.06a7.769,7.769,0,0,0-7.769,7.769A7.769,7.769,0,0,0-.006,32.6a7.769,7.769,0,0,0,7.769-7.769A7.769,7.769,0,0,0-.006,17.06Zm0,10.921a3.152,3.152,0,0,1-3.152-3.152A3.152,3.152,0,0,1-.006,21.678a3.152,3.152,0,0,1,3.152,3.152A3.152,3.152,0,0,1-.006,27.981Z" fill="#f08f28"/><path d="M16.505,61.871l8.651,8.651,8.651-8.651a16.8,16.8,0,0,0,0-23.761L25.156,29.46l-8.651,8.651A16.8,16.8,0,0,0,16.505,61.871Z" fill="#f29b2a"/><path d="M32.925,49.991a7.769,7.769,0,1,0-7.769,7.769A7.769,7.769,0,0,0,32.925,49.991ZM22,49.991a3.152,3.152,0,1,1,3.152,3.152A3.152,3.152,0,0,1,22,49.991Z" fill="#f08f28"/><path d="M-0.006,42.222a7.769,7.769,0,0,0-7.769,7.769A7.769,7.769,0,0,0-.006,57.76a7.769,7.769,0,0,0,7.769-7.769A7.769,7.769,0,0,0-.006,42.222Zm0,10.921a3.152,3.152,0,0,1-3.152-3.152A3.152,3.152,0,0,1-.006,46.84a3.152,3.152,0,0,1,3.152,3.152A3.152,3.152,0,0,1-.006,53.143Z" fill="#f2972c"/><path d="M61.871,33.807l8.651-8.651-8.651-8.651a16.8,16.8,0,0,0-23.761,0L29.46,25.156l8.651,8.651A16.8,16.8,0,0,0,61.871,33.807Z" fill="#f29b2a"/><path d="M49.991,17.387a7.769,7.769,0,1,0,7.769,7.769A7.769,7.769,0,0,0,49.991,17.387Zm0,10.921a3.152,3.152,0,1,1,3.152-3.152A3.152,3.152,0,0,1,49.991,28.308Z" fill="#f08f28"/><path d="M16.178,11.874l8.651,8.651,8.651-8.651a16.8,16.8,0,0,0,0-23.761l-8.651-8.651-8.651,8.651A16.8,16.8,0,0,0,16.178,11.874Z" fill="#f29b2a"/><path d="M32.6-.006a7.769,7.769,0,0,0-7.769-7.769A7.769,7.769,0,0,0,17.06-.006a7.769,7.769,0,0,0,7.769,7.769A7.769,7.769,0,0,0,32.6-.006Zm-10.921,0a3.152,3.152,0,0,1,3.152-3.152A3.152,3.152,0,0,1,27.981-.006a3.152,3.152,0,0,1-3.152,3.152A3.152,3.152,0,0,1,21.677-.006Z" fill="#f08f28"/><path d="M66.5,11.874l8.651,8.651L83.8,11.874a16.8,16.8,0,0,0,0-23.761l-8.651-8.651L66.5-11.886A16.8,16.8,0,0,0,66.5,11.874Z" fill="#f29b2a"/><path d="M82.922-.006a7.769,7.769,0,0,0-7.769-7.769A7.769,7.769,0,0,0,67.384-.006a7.769,7.769,0,0,0,7.769,7.769A7.769,7.769,0,0,0,82.922-.006ZM72-.006a3.152,3.152,0,0,1,3.152-3.152A3.152,3.152,0,0,1,78.3-.006a3.152,3.152,0,0,1-3.152,3.152A3.152,3.152,0,0,1,72-.006Z" fill="#f08f28"/><path d="M49.991-7.775A7.769,7.769,0,0,0,42.222-.006a7.769,7.769,0,0,0,7.769,7.769A7.769,7.769,0,0,0,57.76-.006,7.769,7.769,0,0,0,49.991-7.775Zm0,10.921A3.152,3.152,0,0,1,46.839-.006a3.152,3.152,0,0,1,3.152-3.152A3.152,3.152,0,0,1,53.143-.006,3.152,3.152,0,0,1,49.991,3.146Z" fill="#f2972c"/><circle cx="-0.006" cy="-0.006" r="4.929" fill="#f2972c"/><circle cx="49.991" cy="49.991" r="4.929" fill="#f2972c"/></pattern></defs><title>pattern-design</title><rect width="200" height="200" fill="url(#a)"/></svg>