<svg id="Layer_1" data-name="Layer 1" xmlns="http://www.w3.org/2000/svg" xmlns:xlink="http://www.w3.org/1999/xlink" viewBox="0 0 200 200">
  <defs>
    <style>
      .cls-1, .cls-2, .cls-4 {
        fill: none;
      }

      .cls-2 {
        stroke: #26d1cb;
        stroke-width: 30px;
      }

      .cls-2, .cls-4 {
        stroke-miterlimit: 10;
      }

      .cls-3 {
        fill: #26d1cb;
      }

      .cls-4 {
        stroke: #2edbcd;
        stroke-width: 15px;
      }

      .cls-5 {
        fill: url(#New_Pattern_7);
      }
    </style>
    <pattern id="New_Pattern_7" data-name="New Pattern 7" width="100%" height="100%" patternTransform="translate(-230 -1150)" patternUnits="userSpaceOnUse" viewBox="0 0 200 200">
      <rect class="cls-1" width="100%" height="100%"/>
      <g>
        <line class="cls-2" x1="209.76" y1="256.9" x2="256.9" y2="209.76"/>
        <line class="cls-2" x1="256.9" y1="256.9" x2="209.76" y2="209.76"/>
      </g>
      <g>
        <line class="cls-2" x1="123.57" y1="256.9" x2="76.43" y2="209.76"/>
        <line class="cls-2" x1="9.76" y1="256.9" x2="56.9" y2="209.76"/>
        <line class="cls-2" x1="143.1" y1="256.9" x2="190.24" y2="209.76"/>
        <line class="cls-2" x1="56.9" y1="256.9" x2="9.76" y2="209.76"/>
        <line class="cls-2" x1="76.43" y1="256.9" x2="123.57" y2="209.76"/>
        <line class="cls-2" x1="190.24" y1="256.9" x2="143.1" y2="209.76"/>
      </g>
      <g>
        <line class="cls-2" x1="-56.9" y1="256.9" x2="-9.76" y2="209.76"/>
        <line class="cls-2" x1="-9.76" y1="256.9" x2="-56.9" y2="209.76"/>
      </g>
      <g>
        <line class="cls-2" x1="209.76" y1="123.57" x2="256.9" y2="76.43"/>
        <line class="cls-2" x1="256.9" y1="123.57" x2="209.76" y2="76.43"/>
        <line class="cls-2" x1="209.76" y1="56.9" x2="256.9" y2="9.76"/>
        <line class="cls-2" x1="209.76" y1="190.24" x2="256.9" y2="143.1"/>
        <line class="cls-2" x1="256.9" y1="56.9" x2="209.76" y2="9.76"/>
        <line class="cls-2" x1="256.9" y1="190.24" x2="209.76" y2="143.1"/>
      </g>
      <g>
        <rect class="cls-3" width="100%" height="100%"/>
        <g>
          <line class="cls-2" x1="33.5" x2="33.5" y2="67"/>
          <line class="cls-4" x1="33.5" x2="33.5" y2="67"/>
        </g>
        <g>
          <line class="cls-2" y1="33.5" x2="67" y2="33.5"/>
          <line class="cls-4" y1="33.5" x2="67" y2="33.5"/>
        </g>
        <g>
          <line class="cls-2" x1="99.5" x2="99.5" y2="67"/>
          <line class="cls-4" x1="99.5" x2="99.5" y2="67"/>
        </g>
        <g>
          <line class="cls-2" x1="67" y1="33.5" x2="133" y2="33.5"/>
          <line class="cls-4" x1="67" y1="33.5" x2="133" y2="33.5"/>
        </g>
        <g>
          <line class="cls-2" x1="123.57" y1="56.9" x2="76.43" y2="9.76"/>
          <line class="cls-4" x1="123.57" y1="56.9" x2="76.43" y2="9.76"/>
        </g>
        <g>
          <line class="cls-2" x1="166.5" x2="166.5" y2="67"/>
          <line class="cls-4" x1="166.5" x2="166.5" y2="67"/>
        </g>
        <g>
          <line class="cls-2" x1="133" y1="33.5" x2="200" y2="33.5"/>
          <line class="cls-4" x1="133" y1="33.5" x2="200" y2="33.5"/>
        </g>
        <g>
          <line class="cls-2" y1="100.5" x2="67" y2="100.5"/>
          <line class="cls-4" y1="100.5" x2="67" y2="100.5"/>
        </g>
        <g>
          <line class="cls-2" x1="9.76" y1="123.57" x2="56.9" y2="76.43"/>
          <line class="cls-4" x1="9.76" y1="123.57" x2="56.9" y2="76.43"/>
        </g>
        <g>
          <line class="cls-2" x1="56.9" y1="123.57" x2="9.76" y2="76.43"/>
          <line class="cls-4" x1="56.9" y1="123.57" x2="9.76" y2="76.43"/>
        </g>
        <g>
          <line class="cls-2" x1="99.5" y1="67" x2="99.5" y2="133"/>
          <line class="cls-4" x1="99.5" y1="67" x2="99.5" y2="133"/>
        </g>
        <g>
          <line class="cls-2" x1="76.43" y1="123.57" x2="123.57" y2="76.43"/>
          <line class="cls-4" x1="76.43" y1="123.57" x2="123.57" y2="76.43"/>
        </g>
        <g>
          <line class="cls-2" x1="123.57" y1="123.57" x2="76.43" y2="76.43"/>
          <line class="cls-4" x1="123.57" y1="123.57" x2="76.43" y2="76.43"/>
        </g>
        <g>
          <line class="cls-2" x1="133" y1="100.5" x2="200" y2="100.5"/>
          <line class="cls-4" x1="133" y1="100.5" x2="200" y2="100.5"/>
        </g>
        <g>
          <line class="cls-2" x1="190.24" y1="123.57" x2="143.1" y2="76.43"/>
          <line class="cls-4" x1="190.24" y1="123.57" x2="143.1" y2="76.43"/>
        </g>
        <g>
          <line class="cls-2" x1="33.5" y1="133" x2="33.5" y2="200"/>
          <line class="cls-4" x1="33.5" y1="133" x2="33.5" y2="200"/>
        </g>
        <g>
          <line class="cls-2" y1="166.5" x2="67" y2="166.5"/>
          <line class="cls-4" y1="166.5" x2="67" y2="166.5"/>
        </g>
        <g>
          <line class="cls-2" x1="99.5" y1="133" x2="99.5" y2="200"/>
          <line class="cls-4" x1="99.5" y1="133" x2="99.5" y2="200"/>
        </g>
        <g>
          <line class="cls-2" x1="67" y1="166.5" x2="133" y2="166.5"/>
          <line class="cls-4" x1="67" y1="166.5" x2="133" y2="166.5"/>
        </g>
        <g>
          <line class="cls-2" x1="123.57" y1="190.24" x2="76.43" y2="143.1"/>
          <line class="cls-4" x1="123.57" y1="190.24" x2="76.43" y2="143.1"/>
        </g>
        <g>
          <line class="cls-2" x1="166.5" y1="133" x2="166.5" y2="200"/>
          <line class="cls-4" x1="166.5" y1="133" x2="166.5" y2="200"/>
        </g>
        <g>
          <line class="cls-2" x1="133" y1="166.5" x2="200" y2="166.5"/>
          <line class="cls-4" x1="133" y1="166.5" x2="200" y2="166.5"/>
        </g>
        <g>
          <line class="cls-2" x1="9.76" y1="56.9" x2="56.9" y2="9.76"/>
          <line class="cls-4" x1="9.76" y1="56.9" x2="56.9" y2="9.76"/>
        </g>
        <g>
          <line class="cls-2" x1="143.1" y1="190.24" x2="190.24" y2="143.1"/>
          <line class="cls-4" x1="143.1" y1="190.24" x2="190.24" y2="143.1"/>
        </g>
        <g>
          <line class="cls-2" x1="166.5" y1="67" x2="166.5" y2="133"/>
          <line class="cls-4" x1="166.5" y1="67" x2="166.5" y2="133"/>
        </g>
        <g>
          <line class="cls-2" x1="33.5" y1="67" x2="33.5" y2="133"/>
          <line class="cls-4" x1="33.5" y1="67" x2="33.5" y2="133"/>
        </g>
        <g>
          <line class="cls-2" x1="143.1" y1="56.9" x2="190.24" y2="9.76"/>
          <line class="cls-4" x1="143.1" y1="56.9" x2="190.24" y2="9.76"/>
        </g>
        <g>
          <line class="cls-2" x1="9.76" y1="190.24" x2="56.9" y2="143.1"/>
          <line class="cls-4" x1="9.76" y1="190.24" x2="56.9" y2="143.1"/>
        </g>
        <g>
          <line class="cls-2" x1="190.24" y1="190.24" x2="143.1" y2="143.1"/>
          <line class="cls-4" x1="190.24" y1="190.24" x2="143.1" y2="143.1"/>
        </g>
        <g>
          <line class="cls-2" x1="56.9" y1="56.9" x2="9.76" y2="9.76"/>
          <line class="cls-4" x1="56.9" y1="56.9" x2="9.76" y2="9.76"/>
        </g>
        <g>
          <line class="cls-2" x1="76.43" y1="56.9" x2="123.57" y2="9.76"/>
          <line class="cls-4" x1="76.43" y1="56.9" x2="123.57" y2="9.76"/>
        </g>
        <g>
          <line class="cls-2" x1="76.43" y1="190.24" x2="123.57" y2="143.1"/>
          <line class="cls-4" x1="76.43" y1="190.24" x2="123.57" y2="143.1"/>
        </g>
        <line class="cls-2" x1="190.24" y1="56.9" x2="143.1" y2="9.76"/>
        <line class="cls-4" x1="190.24" y1="56.9" x2="143.1" y2="9.76"/>
        <g>
          <line class="cls-2" x1="56.9" y1="190.24" x2="9.76" y2="143.1"/>
          <line class="cls-4" x1="56.9" y1="190.24" x2="9.76" y2="143.1"/>
        </g>
        <g>
          <line class="cls-2" x1="143.1" y1="123.57" x2="190.24" y2="76.43"/>
          <line class="cls-4" x1="143.1" y1="123.57" x2="190.24" y2="76.43"/>
        </g>
        <g>
          <line class="cls-2" x1="67" y1="100.5" x2="133" y2="100.5"/>
          <line class="cls-4" x1="67" y1="100.5" x2="133" y2="100.5"/>
        </g>
      </g>
      <g>
        <line class="cls-2" x1="-9.76" y1="123.57" x2="-56.9" y2="76.43"/>
        <line class="cls-2" x1="-56.9" y1="190.24" x2="-9.76" y2="143.1"/>
        <line class="cls-2" x1="-56.9" y1="56.9" x2="-9.76" y2="9.76"/>
        <line class="cls-2" x1="-9.76" y1="190.24" x2="-56.9" y2="143.1"/>
        <line class="cls-2" x1="-9.76" y1="56.9" x2="-56.9" y2="9.76"/>
        <line class="cls-2" x1="-56.9" y1="123.57" x2="-9.76" y2="76.43"/>
      </g>
      <g>
        <line class="cls-2" x1="209.76" y1="-9.76" x2="256.9" y2="-56.9"/>
        <line class="cls-2" x1="256.9" y1="-9.76" x2="209.76" y2="-56.9"/>
      </g>
      <g>
        <line class="cls-2" x1="123.57" y1="-9.76" x2="76.43" y2="-56.9"/>
        <line class="cls-2" x1="143.1" y1="-9.76" x2="190.24" y2="-56.9"/>
        <line class="cls-2" x1="9.76" y1="-9.76" x2="56.9" y2="-56.9"/>
        <line class="cls-2" x1="190.24" y1="-9.76" x2="143.1" y2="-56.9"/>
        <line class="cls-2" x1="76.43" y1="-9.76" x2="123.57" y2="-56.9"/>
        <line class="cls-2" x1="56.9" y1="-9.76" x2="9.76" y2="-56.9"/>
      </g>
      <g>
        <line class="cls-2" x1="-56.9" y1="-9.76" x2="-9.76" y2="-56.9"/>
        <line class="cls-2" x1="-9.76" y1="-9.76" x2="-56.9" y2="-56.9"/>
      </g>
    </pattern>
  </defs>
  <title>pattern-reg-exp</title>
  <rect class="cls-5" width="100%" height="100%"/>
</svg>
