<svg id="Layer_1" data-name="Layer 1" xmlns="http://www.w3.org/2000/svg" xmlns:xlink="http://www.w3.org/1999/xlink" viewBox="0 0 200 200">
  <defs>
    <style>
      .cls-1 {
        fill: none;
      }

      .cls-2 {
        fill: #5d95f2;
      }

      .cls-3 {
        fill: #56a2f3;
      }

      .cls-4 {
        fill: url(#New_Pattern_5);
      }
    </style>
    <pattern id="New_Pattern_5" data-name="New Pattern 5" x="-230" y="-920" width="100%" height="100%" patternUnits="userSpaceOnUse" viewBox="0 0 200 200">
      <rect class="cls-1" width="100%" height="100%"/>
      <g>
        <rect class="cls-2" width="100%" height="100%"/>
        <g>
          <g>
            <polygon class="cls-3" points="39.12 61 60 50.56 100 70.56 140 50.56 160.88 61 100 91.44 39.12 61"/>
            <path class="cls-2" d="M140,51.12L159.76,61,100,90.88,40.24,61,60,51.12,99.55,70.89,100,71.12l0.45-.22L140,51.12M140,50L100,70,60,50,38,61l62,31,62-31L140,50h0Z"/>
          </g>
          <g>
            <polygon class="cls-3" points="75.5 149.68 75.5 107.7 35.5 86.7 35.5 65.81 96.5 96.31 96.5 159.22 75.5 149.68"/>
            <path class="cls-2" d="M36,66.62l60,30v61.83l-20-9.09v-42l-0.54-.28L36,86.4V66.62M35,65V87l40,21v42l22,10V96L35,65h0Z"/>
          </g>
          <g>
            <polygon class="cls-3" points="103.5 96.31 164.5 65.81 164.5 86.7 124.5 107.7 124.5 149.68 103.5 159.22 103.5 96.31"/>
            <path class="cls-2" d="M164,66.62V86.4l-39.46,20.72-0.54.28v42l-20,9.09V96.62l60-30M165,65L103,96v64l22-10V108l40-21V65h0Z"/>
          </g>
        </g>
        <g>
          <g>
            <polygon class="cls-3" points="39.12 161 60 150.56 100 170.56 140 150.56 160.88 161 100 191.44 39.12 161"/>
            <path class="cls-2" d="M140,151.12L159.76,161,100,190.88,40.24,161,60,151.12l39.55,19.78,0.45,0.22,0.45-.22L140,151.12m0-1.12-40,20L60,150,38,161l62,31,62-31-22-11h0Z"/>
          </g>
          <g>
            <polygon class="cls-3" points="75.5 249.68 75.5 207.7 35.5 186.7 35.5 165.81 96.5 196.31 96.5 259.22 75.5 249.68"/>
            <path class="cls-2" d="M36,166.62l60,30v61.83l-20-9.09v-42l-0.54-.28L36,186.4V166.62M35,165v22l40,21v42l22,10V196L35,165h0Z"/>
          </g>
          <g>
            <polygon class="cls-3" points="103.5 196.31 164.5 165.81 164.5 186.7 124.5 207.7 124.5 249.68 103.5 259.22 103.5 196.31"/>
            <path class="cls-2" d="M164,166.62V186.4l-39.46,20.72-0.54.28v42l-20,9.09V196.62l60-30m1-1.62-62,31v64l22-10V208l40-21V165h0Z"/>
          </g>
        </g>
        <g>
          <g>
            <polygon class="cls-3" points="139.12 11 160 0.56 200 20.56 240 0.56 260.88 11 200 41.44 139.12 11"/>
            <path class="cls-2" d="M240,1.12L259.76,11,200,40.88,140.24,11,160,1.12l39.55,19.78L200,21.12l0.45-.22L240,1.12M240,0L200,20,160,0,138,11l62,31,62-31L240,0h0Z"/>
          </g>
          <g>
            <polygon class="cls-3" points="175.5 99.68 175.5 57.7 135.5 36.7 135.5 15.81 196.5 46.31 196.5 109.22 175.5 99.68"/>
            <path class="cls-2" d="M136,16.62l60,30v61.83l-20-9.09v-42l-0.54-.28L136,36.4V16.62M135,15V37l40,21v42l22,10V46L135,15h0Z"/>
          </g>
          <g>
            <polygon class="cls-3" points="203.5 46.31 264.5 15.81 264.5 36.7 224.5 57.7 224.5 99.68 203.5 109.22 203.5 46.31"/>
            <path class="cls-2" d="M264,16.62V36.4L224.54,57.11,224,57.4v42l-20,9.09V46.62l60-30M265,15L203,46v64l22-10V58l40-21V15h0Z"/>
          </g>
        </g>
        <g>
          <g>
            <polygon class="cls-3" points="139.12 111 160 100.56 200 120.56 240 100.56 260.88 111 200 141.44 139.12 111"/>
            <path class="cls-2" d="M240,101.12L259.76,111,200,140.88,140.24,111,160,101.12l39.55,19.78,0.45,0.22,0.45-.22L240,101.12m0-1.12-40,20-40-20-22,11,62,31,62-31-22-11h0Z"/>
          </g>
          <g>
            <polygon class="cls-3" points="175.5 199.68 175.5 157.7 135.5 136.7 135.5 115.81 196.5 146.31 196.5 209.22 175.5 199.68"/>
            <path class="cls-2" d="M136,116.62l60,30v61.83l-20-9.09v-42l-0.54-.28L136,136.4V116.62M135,115v22l40,21v42l22,10V146l-62-31h0Z"/>
          </g>
          <g>
            <polygon class="cls-3" points="203.5 146.31 264.5 115.81 264.5 136.7 224.5 157.7 224.5 199.68 203.5 209.22 203.5 146.31"/>
            <path class="cls-2" d="M264,116.62V136.4l-39.46,20.72-0.54.28v42l-20,9.09V146.62l60-30m1-1.62-62,31v64l22-10V158l40-21V115h0Z"/>
          </g>
        </g>
      </g>
      <g>
        <g>
          <g>
            <polygon class="cls-3" points="-60.88 11 -40 0.56 0 20.56 40 0.56 60.88 11 0 41.44 -60.88 11"/>
            <path class="cls-2" d="M40,1.12L59.76,11,0,40.88-59.76,11-40,1.12-0.45,20.89,0,21.12l0.45-.22L40,1.12M40,0L0,20-40,0-62,11,0,42,62,11,40,0h0Z"/>
          </g>
          <g>
            <polygon class="cls-3" points="3.5 46.31 64.5 15.81 64.5 36.7 24.5 57.7 24.5 99.68 3.5 109.22 3.5 46.31"/>
            <path class="cls-2" d="M64,16.62V36.4L24.54,57.11,24,57.4v42L4,108.45V46.62l60-30M65,15L3,46v64l22-10V58L65,37V15h0Z"/>
          </g>
        </g>
        <g>
          <g>
            <polygon class="cls-3" points="-60.88 111 -40 100.56 0 120.56 40 100.56 60.88 111 0 141.44 -60.88 111"/>
            <path class="cls-2" d="M40,101.12L59.76,111,0,140.88-59.76,111-40,101.12l39.55,19.78L0,121.12l0.45-.22L40,101.12M40,100L0,120l-40-20-22,11L0,142l62-31L40,100h0Z"/>
          </g>
          <g>
            <polygon class="cls-3" points="3.5 146.31 64.5 115.81 64.5 136.7 24.5 157.7 24.5 199.68 3.5 209.22 3.5 146.31"/>
            <path class="cls-2" d="M64,116.62V136.4L24.54,157.11,24,157.4v42L4,208.45V146.62l60-30M65,115L3,146v64l22-10V158l40-21V115h0Z"/>
          </g>
        </g>
      </g>
      <g>
        <g>
          <g>
            <polygon class="cls-3" points="75.5 49.68 75.5 7.7 35.5 -13.3 35.5 -34.19 96.5 -3.69 96.5 59.22 75.5 49.68"/>
            <path class="cls-2" d="M36-33.38l60,30V58.45L76,49.36V7.4l-0.54-.28L36-13.6V-33.38M35-35v22L75,8V50L97,60V-4L35-35h0Z"/>
          </g>
          <g>
            <polygon class="cls-3" points="103.5 -3.69 164.5 -34.19 164.5 -13.3 124.5 7.7 124.5 49.68 103.5 59.22 103.5 -3.69"/>
            <path class="cls-2" d="M164-33.38V-13.6L124.54,7.11,124,7.4v42l-20,9.09V-3.38l60-30M165-35L103-4V60l22-10V8l40-21V-35h0Z"/>
          </g>
        </g>
        <g>
          <polygon class="cls-3" points="175.5 -0.32 175.5 -42.3 135.5 -63.3 135.5 -84.19 196.5 -53.69 196.5 9.22 175.5 -0.32"/>
          <path class="cls-2" d="M136-83.38l60,30V8.45L176-.64v-42l-0.54-.28L136-63.6V-83.38M135-85v22l40,21V0l22,10V-54L135-85h0Z"/>
        </g>
      </g>
      <g>
        <polygon class="cls-3" points="3.5 -53.69 64.5 -84.19 64.5 -63.3 24.5 -42.3 24.5 -0.32 3.5 9.22 3.5 -53.69"/>
        <path class="cls-2" d="M64-83.38V-63.6L24.54-42.89,24-42.6v42L4,8.45V-53.38l60-30M65-85L3-54V10L25,0V-42L65-63V-85h0Z"/>
      </g>
    </pattern>
  </defs>
  <title>pattern-c</title>
  <rect class="cls-4" width="100%" height="100%"/>
</svg>
