<svg xmlns="http://www.w3.org/2000/svg" viewBox="0 0 250 110"><title>lthw-logos</title><path d="M80.68,45.859h4.784a11.61,11.61,0,0,1,3.51.494,7.041,7.041,0,0,1,2.678,1.521,6.683,6.683,0,0,1,1.716,2.612,10.7,10.7,0,0,1,.6,3.771,10.914,10.914,0,0,1-.6,3.8,7.031,7.031,0,0,1-1.69,2.665,6.945,6.945,0,0,1-2.613,1.573,10.443,10.443,0,0,1-3.393.52H80.68V45.859Zm4.55,13.858a6.407,6.407,0,0,0,1.976-.286,3.643,3.643,0,0,0,1.508-.923,4.334,4.334,0,0,0,.975-1.678,8.13,8.13,0,0,0,.351-2.573,7.92,7.92,0,0,0-.351-2.535,4.107,4.107,0,0,0-.975-1.638,3.545,3.545,0,0,0-1.508-.871,6.975,6.975,0,0,0-1.976-.261H84.5V59.718h0.728Z" fill="#fff"/><path d="M98.068,45.859h10.608v3.225h-6.786v3.405h5.772v3.2h-5.772v3.9h7.046v3.224H98.068V45.859Z" fill="#fff"/><path d="M114.4,58.054a8.253,8.253,0,0,0,2.015,1.273,5.281,5.281,0,0,0,2.171.494,2.945,2.945,0,0,0,1.781-.441,1.421,1.421,0,0,0,.585-1.2,1.307,1.307,0,0,0-.169-0.676A1.615,1.615,0,0,0,120.285,57a4.648,4.648,0,0,0-.78-0.416l-1-.43-2.21-.936a6.546,6.546,0,0,1-1.261-.676,5.552,5.552,0,0,1-1.092-.976,4.377,4.377,0,0,1-.767-1.3,4.623,4.623,0,0,1-.286-1.677,4.483,4.483,0,0,1,.442-1.963,4.879,4.879,0,0,1,1.248-1.612,5.957,5.957,0,0,1,1.911-1.079,7.265,7.265,0,0,1,2.431-.39,7.886,7.886,0,0,1,2.925.571,7.423,7.423,0,0,1,2.535,1.664L122.43,50.2a7.42,7.42,0,0,0-1.664-1,4.714,4.714,0,0,0-1.846-.351,2.73,2.73,0,0,0-1.573.4,1.3,1.3,0,0,0-.585,1.131,1.114,1.114,0,0,0,.195.663,1.9,1.9,0,0,0,.546.493,5.411,5.411,0,0,0,.819.416q0.468,0.2,1.014.43l2.184,0.884a5.968,5.968,0,0,1,2.457,1.716,4.4,4.4,0,0,1,.9,2.886,4.809,4.809,0,0,1-1.677,3.68,6.221,6.221,0,0,1-2.015,1.144,7.972,7.972,0,0,1-2.7.429,9.492,9.492,0,0,1-3.315-.61,8.653,8.653,0,0,1-2.951-1.833Z" fill="#fff"/><path d="M128.7,45.859h3.822V62.812H128.7V45.859Z" fill="#fff"/><path d="M136.6,54.439a10.015,10.015,0,0,1,.663-3.757,8.338,8.338,0,0,1,1.794-2.795,7.606,7.606,0,0,1,2.652-1.742,8.768,8.768,0,0,1,3.237-.6,6.712,6.712,0,0,1,3.107.676,8.169,8.169,0,0,1,2.145,1.534l-2.106,2.365a5.255,5.255,0,0,0-1.313-.936A4.064,4.064,0,0,0,145,48.85a4.274,4.274,0,0,0-1.807.377,4.088,4.088,0,0,0-1.417,1.079,4.929,4.929,0,0,0-.923,1.716,7.48,7.48,0,0,0-.325,2.288,6.252,6.252,0,0,0,1.183,4.069,4.352,4.352,0,0,0,3.575,1.442,3.959,3.959,0,0,0,1.014-.13,2.058,2.058,0,0,0,.806-0.39V56.39H144.3V53.27h6.188v7.8a7.58,7.58,0,0,1-2.392,1.456,8.683,8.683,0,0,1-3.276.6,9.085,9.085,0,0,1-3.211-.559,7.389,7.389,0,0,1-2.613-1.651A7.614,7.614,0,0,1,137.24,58.2,10.241,10.241,0,0,1,136.6,54.439Z" fill="#fff"/><path d="M154.995,45.859h3.926l4.42,8.424L165,58.027h0.1q-0.13-1.352-.3-3.016a31.408,31.408,0,0,1-.169-3.172v-5.98h3.64V62.812h-3.926l-4.42-8.45-1.664-3.691h-0.1q0.13,1.4.3,3.016a30.051,30.051,0,0,1,.169,3.12v6.006h-3.64V45.859Z" fill="#fff"/><path d="M102.513,4.991h2.623v7.717h3.751v2.2h-6.375V4.991Z" fill="#fff"/><path d="M110.7,4.991h6.4v2.2h-3.782V8.743h3.233v2.2h-3.233v1.77h3.934v2.2H110.7V4.991Z" fill="#fff"/><path d="M124.51,12.8h-2.775l-0.488,2.1h-2.684l3.02-9.912h3.172l3.02,9.912H125Zm-0.473-2.029-0.168-.686q-0.182-.718-0.366-1.556t-0.366-1.586h-0.061q-0.168.763-.343,1.594t-0.358,1.548l-0.168.686h1.83Z" fill="#fff"/><path d="M134.552,14.9l-1.708-3.324h-1.006V14.9h-2.623V4.991h3.751a7.357,7.357,0,0,1,1.517.152,3.553,3.553,0,0,1,1.266.519,2.623,2.623,0,0,1,.861.983,3.346,3.346,0,0,1,.32,1.549,3.308,3.308,0,0,1-.435,1.769,3.077,3.077,0,0,1-1.167,1.1l2.15,3.842h-2.928Zm-2.714-5.4h0.945q1.586,0,1.586-1.311a0.946,0.946,0,0,0-.4-0.885,2.32,2.32,0,0,0-1.182-.244h-0.945V9.5Z" fill="#fff"/><path d="M139.11,4.991h2.684l2.2,4.422,0.945,2.227H145c-0.03-.264-0.066-0.553-0.106-0.869s-0.077-.637-0.107-0.968-0.059-.661-0.084-0.991-0.038-.648-0.038-0.953V4.991h2.5V14.9h-2.684l-2.2-4.437-0.945-2.211h-0.061q0.092,0.854.213,1.86a16.044,16.044,0,0,1,.122,1.921V14.9h-2.5V4.991Z" fill="#fff"/><path d="M16,96.5A2.5,2.5,0,0,1,13.5,94V16A2.5,2.5,0,0,1,16,13.5H90a1.5,1.5,0,0,1,0,3H16.5v77l48.5,0a1.5,1.5,0,0,1,0,3Z" fill="#fff"/><path d="M65,106.5H8A4.5,4.5,0,0,1,3.5,102V8A4.5,4.5,0,0,1,8,3.5H90a1.5,1.5,0,0,1,0,3H8A1.5,1.5,0,0,0,6.5,8v94A1.5,1.5,0,0,0,8,103.5H65A1.5,1.5,0,0,1,65,106.5Z" fill="#fff"/><path d="M234,96.5l-49,0a1.5,1.5,0,0,1,0-3h0l48.5,0v-77H160a1.5,1.5,0,0,1,0-3h74a2.5,2.5,0,0,1,2.5,2.5V94A2.5,2.5,0,0,1,234,96.5Zm0-80h0Z" fill="#fff"/><path d="M242,106.5H185a1.5,1.5,0,0,1,0-3h57a1.5,1.5,0,0,0,1.5-1.5V8A1.5,1.5,0,0,0,242,6.5H160a1.5,1.5,0,0,1,0-3h82A4.5,4.5,0,0,1,246.5,8v94A4.5,4.5,0,0,1,242,106.5Z" fill="#fff"/><path d="M99.879,95.087H102.5v3.691h2.958V95.087h2.623V105H105.46v-3.935H102.5V105H99.879V95.087Z" fill="#fff"/><path d="M115.464,102.9h-2.775L112.2,105h-2.684l3.02-9.913h3.172l3.02,9.913h-2.775Zm-0.473-2.028-0.168-.687q-0.182-.716-0.366-1.555t-0.366-1.586H114.03q-0.168.762-.343,1.594t-0.358,1.547l-0.168.687h1.83Z" fill="#fff"/><path d="M125.506,105l-1.708-3.325h-1.006V105h-2.623V95.087h3.751a7.356,7.356,0,0,1,1.517.153,3.535,3.535,0,0,1,1.266.519,2.623,2.623,0,0,1,.861.983,3.857,3.857,0,0,1-.114,3.317,3.074,3.074,0,0,1-1.167,1.1l2.15,3.843h-2.928Zm-2.714-5.4h0.945q1.586,0,1.586-1.312a0.947,0.947,0,0,0-.4-0.885,2.32,2.32,0,0,0-1.182-.244h-0.945V99.6Z" fill="#fff"/><path d="M130.064,95.087h2.928a7.314,7.314,0,0,1,2.066.275,4.134,4.134,0,0,1,1.609.869,3.979,3.979,0,0,1,1.045,1.525,6.01,6.01,0,0,1,.374,2.241,6.25,6.25,0,0,1-.366,2.257,4.067,4.067,0,0,1-1.029,1.556,4.149,4.149,0,0,1-1.571.9,6.455,6.455,0,0,1-1.975.29h-3.081V95.087Zm2.775,7.809a3.808,3.808,0,0,0,1.006-.129,1.923,1.923,0,0,0,.816-0.451,2.159,2.159,0,0,0,.542-0.884,4.4,4.4,0,0,0,.2-1.434,4.267,4.267,0,0,0-.2-1.419,2.045,2.045,0,0,0-.542-0.854,1.88,1.88,0,0,0-.816-0.42,4.271,4.271,0,0,0-1.006-.113h-0.152v5.7h0.152Z" fill="#fff"/><path d="M142.722,95.087h2.684l0.549,4.332c0.05,0.518.106,1.037,0.167,1.555s0.117,1.037.168,1.556h0.061l0.274-1.556c0.091-.518.183-1.037,0.274-1.555l0.945-4.332h2.2l0.945,4.332q0.137,0.747.274,1.532t0.274,1.578H151.6q0.076-.792.168-1.57t0.167-1.54l0.549-4.332h2.5L153.336,105h-3.325l-0.762-3.935q-0.122-.58-0.206-1.174t-0.16-1.145h-0.061q-0.076.549-.16,1.145t-0.206,1.174L147.724,105H144.46Z" fill="#fff"/><path d="M161.235,102.9h-2.775l-0.488,2.1h-2.684l3.02-9.913h3.172L164.5,105h-2.775Zm-0.473-2.028-0.168-.687q-0.182-.716-0.366-1.555t-0.366-1.586H159.8q-0.168.762-.343,1.594t-0.358,1.547l-0.168.687h1.83Z" fill="#fff"/><path d="M167.062,101.584l-2.989-6.5h2.806l0.732,2.074q0.182,0.565.366,1.1c0.122,0.357.249,0.728,0.381,1.113h0.061c0.132-.386.262-0.756,0.389-1.113s0.257-.721.389-1.1l0.732-2.074h2.745l-2.989,6.5V105h-2.623v-3.416Z" fill="#fff"/><path d="M79.613,97.293h-1.64l0.26-1.34h4.88l-0.26,1.34h-1.64l-1.02,5.16h-1.6Z" fill="#fff"/><path d="M84.133,95.953h1.6l-0.5,2.44h1.94l0.48-2.44h1.6l-1.3,6.5h-1.6l0.54-2.66h-1.94l-0.52,2.66h-1.6Z" fill="#fff"/><path d="M90.773,95.953h3.96l-0.26,1.34h-2.38l-0.22,1.141h2.02l-0.26,1.34h-2.02l-0.28,1.34h2.46l-0.26,1.34h-4.06Z" fill="#fff"/><path d="M93.813,105h-16a0.5,0.5,0,0,1,0-1h16A0.5,0.5,0,0,1,93.813,105Z" fill="#fff"/></svg>