<svg id="Layer_1" data-name="Layer 1" xmlns="http://www.w3.org/2000/svg" viewBox="0 0 250 110"><defs><style>.cls-1{fill:#fff;}.cls-2,.cls-3{fill:none;stroke:#fff;stroke-linecap:round;stroke-miterlimit:10;}.cls-2{stroke-width:3px;}</style></defs><title>_</title><path class="cls-1" d="M91.2,34.86h4.06l2.83,7.62,1,3h0.1l1-3L103,34.86h4v17h-3.56V45.6q0-.62.05-1.38t0.13-1.52l0.16-1.51q0.08-.74.16-1.37h-0.1l-1.4,3.93-2.6,6.58H98.3l-2.6-6.58-1.35-3.93h-0.1q0.08,0.62.16,1.37t0.14,1.51q0.07,0.77.12,1.52t0.05,1.38v6.21H91.2v-17Z"/><path class="cls-1" d="M118.81,52.12a7.83,7.83,0,0,1-3.13-.61,6.81,6.81,0,0,1-2.43-1.75A8.06,8.06,0,0,1,111.67,47a11.47,11.47,0,0,1-.56-3.72,11.35,11.35,0,0,1,.56-3.71,7.67,7.67,0,0,1,1.57-2.73,6.75,6.75,0,0,1,2.43-1.69,8.68,8.68,0,0,1,6.27,0,6.68,6.68,0,0,1,2.43,1.7,7.8,7.8,0,0,1,1.57,2.74,11.28,11.28,0,0,1,.56,3.68,11.48,11.48,0,0,1-.56,3.72,8.07,8.07,0,0,1-1.57,2.78,6.81,6.81,0,0,1-2.43,1.75A7.83,7.83,0,0,1,118.81,52.12Zm0-3.3a3.17,3.17,0,0,0,2.76-1.5,7.15,7.15,0,0,0,1-4.07,6.79,6.79,0,0,0-1-4,3.37,3.37,0,0,0-5.51,0,6.79,6.79,0,0,0-1,4,7.15,7.15,0,0,0,1,4.07A3.16,3.16,0,0,0,118.81,48.82Z"/><path class="cls-1" d="M139.77,51.81l-3.25-6.11h-2.11v6.11h-3.82v-17h6.11a11.83,11.83,0,0,1,2.54.26,5.78,5.78,0,0,1,2.07.87,4.36,4.36,0,0,1,1.4,1.63,5.5,5.5,0,0,1,.52,2.52,5.38,5.38,0,0,1-.82,3.08,5,5,0,0,1-2.2,1.81l3.85,6.79h-4.29Zm-5.36-9.15h2a3.6,3.6,0,0,0,2.3-.64,2.27,2.27,0,0,0,.79-1.88,1.89,1.89,0,0,0-.79-1.74,4.39,4.39,0,0,0-2.3-.49h-2v4.76Z"/><path class="cls-1" d="M147.51,34.86h10.61v3.22h-6.79v3.41h5.77v3.2h-5.77v3.9h7v3.22H147.51v-17Z"/><path class="cls-1" d="M75.52,57.86h6.19a11.69,11.69,0,0,1,2.59.27A5.79,5.79,0,0,1,86.4,59a4.44,4.44,0,0,1,1.42,1.69,6.59,6.59,0,0,1,0,5.16,5,5,0,0,1-1.44,1.79,6.14,6.14,0,0,1-2.11,1,9.32,9.32,0,0,1-2.55.34H79.34v5.75H75.52v-17Zm6,8.16q3.12,0,3.12-2.7a2.11,2.11,0,0,0-.79-1.87,4.11,4.11,0,0,0-2.33-.55H79.34V66h2.13Z"/><path class="cls-1" d="M95.15,68.78L90,57.86h4.11l1.51,3.9q0.36,1,.69,1.86L97,65.5h0.1q0.36-1,.71-1.89t0.71-1.86l1.53-3.9h4L99,68.78v6H95.15v-6Z"/><path class="cls-1" d="M111.12,61.08h-4.65V57.86h13.16v3.22H115V74.81h-3.85V61.08Z"/><path class="cls-1" d="M123.07,57.86h3.82v6.53h5.85V57.86h3.85v17h-3.85V67.74h-5.85v7.07h-3.82v-17Z"/><path class="cls-1" d="M148.37,75.12a7.83,7.83,0,0,1-3.13-.61,6.81,6.81,0,0,1-2.43-1.75A8.06,8.06,0,0,1,141.23,70a11.47,11.47,0,0,1-.56-3.72,11.35,11.35,0,0,1,.56-3.71,7.67,7.67,0,0,1,1.57-2.73,6.75,6.75,0,0,1,2.43-1.69,8.68,8.68,0,0,1,6.27,0,6.68,6.68,0,0,1,2.43,1.7,7.8,7.8,0,0,1,1.57,2.74,11.28,11.28,0,0,1,.56,3.68,11.48,11.48,0,0,1-.56,3.72,8.07,8.07,0,0,1-1.57,2.78,6.81,6.81,0,0,1-2.43,1.75A7.83,7.83,0,0,1,148.37,75.12Zm0-3.3a3.17,3.17,0,0,0,2.76-1.5,7.15,7.15,0,0,0,1-4.07,6.79,6.79,0,0,0-1-4,3.37,3.37,0,0,0-5.51,0,6.79,6.79,0,0,0-1,4,7.15,7.15,0,0,0,1,4.07A3.16,3.16,0,0,0,148.37,71.82Z"/><path class="cls-1" d="M160.16,57.86h3.93l4.42,8.42L170.17,70h0.1q-0.13-1.35-.3-3a31.41,31.41,0,0,1-.17-3.17v-6h3.64v17h-3.93l-4.42-8.45-1.66-3.69h-0.1q0.13,1.4.3,3a30.05,30.05,0,0,1,.17,3.12v6h-3.64v-17Z"/><path class="cls-1" d="M102.51,5h2.62v7.72h3.75v2.2h-6.37V5Z"/><path class="cls-1" d="M110.7,5h6.4v2.2h-3.78V8.74h3.23v2.2h-3.23v1.77h3.93v2.2H110.7V5Z"/><path class="cls-1" d="M124.51,12.8h-2.78l-0.49,2.1h-2.68l3-9.91h3.17l3,9.91H125Zm-0.47-2-0.17-.69q-0.18-.72-0.37-1.56t-0.37-1.59h-0.06q-0.17.76-.34,1.59t-0.36,1.55l-0.17.69H124Z"/><path class="cls-1" d="M134.55,14.9l-1.71-3.32h-1V14.9h-2.62V5H133a7.36,7.36,0,0,1,1.52.15,3.54,3.54,0,0,1,1.27.52,2.62,2.62,0,0,1,.86,1,3.34,3.34,0,0,1,.32,1.55A3.31,3.31,0,0,1,136.5,10a3.07,3.07,0,0,1-1.17,1.1l2.15,3.84h-2.93Zm-2.71-5.4h0.95q1.59,0,1.59-1.31a1,1,0,0,0-.4-0.88,2.32,2.32,0,0,0-1.18-.24h-0.95V9.51Z"/><path class="cls-1" d="M139.11,5h2.68L144,9.41l0.95,2.23H145q0-.4-0.11-0.87t-0.11-1q0-.5-0.08-1t0-1V5h2.5V14.9h-2.68l-2.2-4.44-0.95-2.21h-0.06q0.09,0.85.21,1.86a16,16,0,0,1,.12,1.92V14.9h-2.5V5Z"/><path class="cls-2" d="M90,15H16a1,1,0,0,0-1,1V94a1,1,0,0,0,1,1H65"/><path class="cls-2" d="M90,5H8A3,3,0,0,0,5,8v94a3,3,0,0,0,3,3H65"/><path class="cls-2" d="M160,15h74a1,1,0,0,1,1,1V94a1,1,0,0,1-1,1H185"/><path class="cls-2" d="M160,5h82a3,3,0,0,1,3,3v94a3,3,0,0,1-3,3H185"/><path class="cls-1" d="M99.88,95.09h2.62v3.69h3V95.09h2.62V105h-2.62v-3.93h-3V105H99.88V95.09Z"/><path class="cls-1" d="M115.46,102.9h-2.78L112.2,105h-2.68l3-9.91h3.17l3,9.91H116Zm-0.47-2-0.17-.69q-0.18-.72-0.37-1.56T114.09,97H114q-0.17.76-.34,1.59t-0.36,1.55l-0.17.69H115Z"/><path class="cls-1" d="M125.51,105l-1.71-3.32h-1V105h-2.62V95.09h3.75a7.36,7.36,0,0,1,1.52.15,3.54,3.54,0,0,1,1.27.52,2.62,2.62,0,0,1,.86,1,3.34,3.34,0,0,1,.32,1.55,3.31,3.31,0,0,1-.43,1.77,3.07,3.07,0,0,1-1.17,1.1l2.15,3.84h-2.93Zm-2.71-5.4h0.95q1.59,0,1.59-1.31a1,1,0,0,0-.4-0.88,2.32,2.32,0,0,0-1.18-.24h-0.95V99.6Z"/><path class="cls-1" d="M130.06,95.09H133a7.35,7.35,0,0,1,2.07.27,4.14,4.14,0,0,1,1.61.87,4,4,0,0,1,1,1.52,6,6,0,0,1,.37,2.24,6.25,6.25,0,0,1-.37,2.26,4.07,4.07,0,0,1-1,1.56,4.16,4.16,0,0,1-1.57.9,6.47,6.47,0,0,1-2,.29h-3.08V95.09Zm2.78,7.81a3.79,3.79,0,0,0,1-.13,1.92,1.92,0,0,0,.82-0.45,2.16,2.16,0,0,0,.54-0.88,4.4,4.4,0,0,0,.2-1.43,4.26,4.26,0,0,0-.2-1.42,2,2,0,0,0-.54-0.85,1.87,1.87,0,0,0-.82-0.42,4.27,4.27,0,0,0-1-.11h-0.15v5.7h0.15Z"/><path class="cls-1" d="M142.72,95.09h2.68L146,99.42q0.08,0.78.17,1.56t0.17,1.56h0.06l0.27-1.56,0.27-1.56,0.95-4.33H150L151,99.42q0.14,0.75.27,1.53l0.27,1.58h0.06q0.08-.79.17-1.57t0.17-1.54l0.55-4.33H155L153.34,105H150l-0.76-3.93q-0.12-.58-0.21-1.17l-0.16-1.14h-0.06l-0.16,1.14q-0.08.59-.21,1.17L147.72,105h-3.26Z"/><path class="cls-1" d="M161.23,102.9h-2.78L158,105h-2.68l3-9.91h3.17l3,9.91h-2.78Zm-0.47-2-0.17-.69q-0.18-.72-0.37-1.56T159.86,97H159.8q-0.17.76-.34,1.59t-0.36,1.55l-0.17.69h1.83Z"/><path class="cls-1" d="M167.06,101.58l-3-6.5h2.81l0.73,2.07q0.18,0.56.37,1.1l0.38,1.11h0.06l0.39-1.11,0.39-1.1,0.73-2.07h2.75l-3,6.5V105h-2.62v-3.42Z"/><path class="cls-1" d="M79.61,97.29H78L78.23,96h4.88l-0.26,1.34H81.21l-1,5.16h-1.6Z"/><path class="cls-1" d="M84.13,96h1.6l-0.5,2.44h1.94L87.65,96h1.6l-1.3,6.5h-1.6l0.54-2.66H85l-0.52,2.66h-1.6Z"/><path class="cls-1" d="M90.77,96h4l-0.26,1.34H92.09l-0.22,1.14h2l-0.26,1.34h-2l-0.28,1.34h2.46l-0.26,1.34H89.47Z"/><line class="cls-3" x1="77.81" y1="104.5" x2="93.81" y2="104.5"/></svg>