<svg id="Layer_1" data-name="Layer 1" xmlns="http://www.w3.org/2000/svg" xmlns:xlink="http://www.w3.org/1999/xlink" viewBox="0 0 200 200">
  <defs>
    <style>
      .cls-1, .cls-3, .cls-5 {
        fill: none;
      }

      .cls-2 {
        fill: #22995d;
      }

      .cls-3 {
        stroke: #22995d;
      }

      .cls-3, .cls-5 {
        stroke-miterlimit: 10;
        stroke-width: 10px;
      }

      .cls-4 {
        fill: #1d915b;
      }

      .cls-5 {
        stroke: #1d915b;
      }

      .cls-6 {
        fill: url(#New_Pattern_4);
      }
    </style>
    <pattern id="New_Pattern_4" data-name="New Pattern 4" x="-230" y="-690" width="100%" height="100%" patternUnits="userSpaceOnUse" viewBox="0 0 200 200">
      <rect class="cls-1" width="100%" height="100%"/>
      <path class="cls-2" d="M228,185l10,15-10,15H172l-10-15,10-15h56m5.35-10H166.67L150,200l16.67,25h66.67L250,200l-16.67-25h0Z"/>
      <g>
        <path class="cls-2" d="M28,185l10,15L28,215H-28l-10-15,10-15H28m5.35-10H-33.33L-50,200l16.67,25H33.33L50,200,33.33,175h0Z"/>
        <polygon class="cls-3" points="71.71 280 45 240 71.71 200 128.29 200 155 240 128.29 280 71.71 280"/>
      </g>
      <g>
        <polygon class="cls-3" points="171.71 140 145 100 171.71 60 228.29 60 255 100 228.29 140 171.71 140"/>
        <path class="cls-2" d="M228-15L238,0,228,15H172L162,0l10-15h56m5.35-10H166.67L150,0l16.67,25h66.67L250,0,233.33-25h0Z"/>
        <path class="cls-2" d="M228,185l10,15-10,15H172l-10-15,10-15h56m5.35-10H166.67L150,200l16.67,25h66.67L250,200l-16.67-25h0Z"/>
      </g>
      <g>
        <rect class="cls-4" width="100%" height="100%"/>
        <polygon class="cls-3" points="-28.29 140 -55 100 -28.29 60 28.29 60 55 100 28.29 140 -28.29 140"/>
        <polygon class="cls-3" points="171.71 140 145 100 171.71 60 228.29 60 255 100 228.29 140 171.71 140"/>
        <polygon class="cls-2" points="182 125 165 100 182 75 218 75 235 100 218 125 182 125"/>
        <path class="cls-2" d="M28-15L38,0,28,15H-28L-38,0l10-15H28m5.35-10H-33.33L-50,0l16.67,25H33.33L50,0,33.33-25h0Z"/>
        <path class="cls-2" d="M28,185l10,15L28,215H-28l-10-15,10-15H28m5.35-10H-33.33L-50,200l16.67,25H33.33L50,200,33.33,175h0Z"/>
        <path class="cls-2" d="M228,185l10,15-10,15H172l-10-15,10-15h56m5.35-10H166.67L150,200l16.67,25h66.67L250,200l-16.67-25h0Z"/>
        <polygon class="cls-3" points="71.71 200 45 160 71.71 120 128.29 120 155 160 128.29 200 71.71 200"/>
        <polygon class="cls-2" points="82 185 65 160 82 135 91.49 121.05 101.8 125 95 135 118 135 135 160 118 185 82 185"/>
        <polygon class="cls-4" points="95 185 78 160 95 135 105 135 122 160 105 185 95 185"/>
        <polygon class="cls-4" points="195 125 178 100 195 75 205 75 222 100 205 125 195 125"/>
        <polygon class="cls-3" points="71.71 80 45 40 71.71 0 128.29 0 155 40 128.29 80 71.71 80"/>
        <polygon class="cls-2" points="82 65 65 40 82 15 118 15 135 40 118 65 82 65"/>
        <line class="cls-3" x1="55" y1="100" x2="145" y2="100"/>
        <line class="cls-3" x1="155" y1="160" x2="200" y2="160"/>
        <line class="cls-3" x1="155" y1="40" x2="200" y2="40"/>
        <line class="cls-3" y1="160" x2="45" y2="160"/>
        <line class="cls-3" y1="40" x2="45" y2="40"/>
        <line class="cls-5" x1="33.71" y1="90" x2="90.29" y2="90"/>
        <line class="cls-5" x1="8.71" y1="30" x2="65.29" y2="30"/>
        <line class="cls-5" x1="148.71" y1="190" x2="189.37" y2="190"/>
        <polygon class="cls-4" points="65 160 51.29 160 81.94 113.67 96.09 114.28 65 160"/>
        <line class="cls-5" x1="129.64" y1="20" x2="156.36" y2="60"/>
        <line class="cls-5" x1="163.64" y1="110" x2="190.36" y2="150"/>
        <polygon class="cls-4" points="95 65 78 40 95 15 105 15 122 40 105 65 95 65"/>
        <polygon class="cls-4" points="179 225 162 200 179 175 221 175 238 200 221 225 179 225"/>
        <path class="cls-2" d="M208,175H192l-17,25,17,25h16l17-25Zm-5.29,40h-5.41l-10.2-15,10.2-15h5.41l10.2,15Z"/>
      </g>
      <g>
        <polygon class="cls-3" points="-28.29 140 -55 100 -28.29 60 28.29 60 55 100 28.29 140 -28.29 140"/>
        <polygon class="cls-2" points="-18 125 -35 100 -18 75 18 75 35 100 18 125 -18 125"/>
        <path class="cls-2" d="M28,185l10,15L28,215H-28l-10-15,10-15H28m5.35-10H-33.33L-50,200l16.67,25H33.33L50,200,33.33,175h0Z"/>
        <polygon class="cls-4" points="-5 125 -22 100 -5 75 5 75 22 100 5 125 -5 125"/>
        <polygon class="cls-4" points="-21 225 -38 200 -21 175 21 175 38 200 21 225 -21 225"/>
        <path class="cls-2" d="M8,175H-8l-17,25,17,25H8l17-25ZM2.71,215H-2.71l-10.2-15,10.2-15H2.71l10.2,15Z"/>
      </g>
      <path class="cls-2" d="M228-15L238,0,228,15H172L162,0l10-15h56m5.35-10H166.67L150,0l16.67,25h66.67L250,0,233.33-25h0Z"/>
      <g>
        <path class="cls-2" d="M28-15L38,0,28,15H-28L-38,0l10-15H28m5.35-10H-33.33L-50,0l16.67,25H33.33L50,0,33.33-25h0Z"/>
        <path class="cls-2" d="M228-15L238,0,228,15H172L162,0l10-15h56m5.35-10H166.67L150,0l16.67,25h66.67L250,0,233.33-25h0Z"/>
        <polygon class="cls-3" points="71.71 0 45 -40 71.71 -80 128.29 -80 155 -40 128.29 0 71.71 0"/>
        <polygon class="cls-4" points="179 25 162 0 179 -25 221 -25 238 0 221 25 179 25"/>
        <path class="cls-2" d="M208-25H192L175,0l17,25h16L225,0Zm-5.29,40h-5.41L187.09,0l10.2-15h5.41l10.2,15Z"/>
      </g>
      <g>
        <path class="cls-2" d="M28-15L38,0,28,15H-28L-38,0l10-15H28m5.35-10H-33.33L-50,0l16.67,25H33.33L50,0,33.33-25h0Z"/>
        <polygon class="cls-4" points="-21 25 -38 0 -21 -25 21 -25 38 0 21 25 -21 25"/>
        <path class="cls-2" d="M8-25H-8L-25,0-8,25H8L25,0ZM2.71,15H-2.71L-12.91,0l10.2-15H2.71L12.91,0Z"/>
      </g>
    </pattern>
  </defs>
  <title>pattern-more-python</title>
  <rect class="cls-6" width="100%" height="100%"/>
</svg>
