<svg id="Layer_1" data-name="Layer 1" xmlns="http://www.w3.org/2000/svg" xmlns:xlink="http://www.w3.org/1999/xlink" viewBox="0 0 200 200">
  <defs>
    <style>
      .cls-1, .cls-3 {
        fill: none;
      }

      .cls-2 {
        fill: #e352ac;
      }

      .cls-3 {
        stroke: #de499d;
        stroke-linecap: round;
        stroke-miterlimit: 10;
        stroke-width: 7px;
      }

      .cls-4 {
        fill: #de499d;
      }

      .cls-5 {
        fill: url(#New_Pattern_10);
      }
    </style>
    <pattern id="New_Pattern_10" data-name="New Pattern 10" x="-230" y="-1150" width="100%" height="100%" patternUnits="userSpaceOnUse" viewBox="0 0 200 200">
      <rect class="cls-1" width="100%" height="100%"/>
      <g>
        <path class="cls-2" d="M204.29,207a10.8,10.8,0,0,1-8.59,0l-21.41-10.76a8.57,8.57,0,0,1-4.29-7v-20.5a8.57,8.57,0,0,1,4.29-7L195.71,151a10.8,10.8,0,0,1,8.59,0l21.41,10.76a8.57,8.57,0,0,1,4.29,7v20.5a8.57,8.57,0,0,1-4.29,7Z"/>
        <path class="cls-3" d="M217.55,170.21c-14.75,1.82-25.81,8.55-35.1,17.63"/>
        <path class="cls-2" d="M204.29,106.91a10.8,10.8,0,0,1-8.59,0L174.29,96.15a8.57,8.57,0,0,1-4.29-7V68.68a8.57,8.57,0,0,1,4.29-7l21.41-10.76a10.8,10.8,0,0,1,8.59,0L225.71,61.7a8.57,8.57,0,0,1,4.29,7v20.5a8.57,8.57,0,0,1-4.29,7Z"/>
        <path class="cls-3" d="M217.55,70.11c-14.75,1.82-25.81,8.55-35.1,17.63"/>
      </g>
      <g>
        <rect class="cls-4" width="100%" height="100%"/>
        <path class="cls-2" d="M4.29,207a10.8,10.8,0,0,1-8.59,0l-21.41-10.76a8.57,8.57,0,0,1-4.29-7v-20.5a8.57,8.57,0,0,1,4.29-7L-4.29,151a10.8,10.8,0,0,1,8.59,0L25.71,161.8a8.57,8.57,0,0,1,4.29,7v20.5a8.57,8.57,0,0,1-4.29,7Z"/>
        <path class="cls-3" d="M17.55,170.21C2.8,172-8.26,178.75-17.55,187.84"/>
        <path class="cls-2" d="M71.29,207a10.8,10.8,0,0,1-8.59,0L41.29,196.25a8.57,8.57,0,0,1-4.29-7v-20.5a8.57,8.57,0,0,1,4.29-7L62.71,151a10.8,10.8,0,0,1,8.59,0L92.71,161.8a8.57,8.57,0,0,1,4.29,7v20.5a8.57,8.57,0,0,1-4.29,7Z"/>
        <path class="cls-3" d="M84.55,170.21c-14.75,1.82-25.81,8.55-35.1,17.63"/>
        <path class="cls-2" d="M137.29,207a10.8,10.8,0,0,1-8.59,0l-21.41-10.76a8.57,8.57,0,0,1-4.29-7v-20.5a8.57,8.57,0,0,1,4.29-7L128.71,151a10.8,10.8,0,0,1,8.59,0l21.41,10.76a8.57,8.57,0,0,1,4.29,7v20.5a8.57,8.57,0,0,1-4.29,7Z"/>
        <path class="cls-3" d="M115.45,170.21c14.75,1.82,25.81,8.55,35.1,17.63"/>
        <path class="cls-2" d="M204.29,207a10.8,10.8,0,0,1-8.59,0l-21.41-10.76a8.57,8.57,0,0,1-4.29-7v-20.5a8.57,8.57,0,0,1,4.29-7L195.71,151a10.8,10.8,0,0,1,8.59,0l21.41,10.76a8.57,8.57,0,0,1,4.29,7v20.5a8.57,8.57,0,0,1-4.29,7Z"/>
        <path class="cls-3" d="M217.55,170.21c-14.75,1.82-25.81,8.55-35.1,17.63"/>
        <path class="cls-2" d="M37.79,157a10.8,10.8,0,0,1-8.59,0L7.79,146.2a8.57,8.57,0,0,1-4.29-7v-20.5a8.57,8.57,0,0,1,4.29-7L29.21,101a10.8,10.8,0,0,1,8.59,0l21.41,10.76a8.57,8.57,0,0,1,4.29,7v20.5a8.57,8.57,0,0,1-4.29,7Z"/>
        <path class="cls-3" d="M15.95,120.16c14.75,1.82,25.81,8.55,35.1,17.63"/>
        <path class="cls-2" d="M104.79,157a10.8,10.8,0,0,1-8.59,0L74.79,146.2a8.57,8.57,0,0,1-4.29-7v-20.5a8.57,8.57,0,0,1,4.29-7L96.21,101a10.8,10.8,0,0,1,8.59,0l21.41,10.76a8.57,8.57,0,0,1,4.29,7v20.5a8.57,8.57,0,0,1-4.29,7Z"/>
        <path class="cls-3" d="M118.05,120.16c-14.75,1.82-25.81,8.55-35.1,17.63"/>
        <path class="cls-2" d="M170.79,157a10.8,10.8,0,0,1-8.59,0L140.79,146.2a8.57,8.57,0,0,1-4.29-7v-20.5a8.57,8.57,0,0,1,4.29-7L162.21,101a10.8,10.8,0,0,1,8.59,0l21.41,10.76a8.57,8.57,0,0,1,4.29,7v20.5a8.57,8.57,0,0,1-4.29,7Z"/>
        <path class="cls-3" d="M148.95,120.16c14.75,1.82,25.81,8.55,35.1,17.63"/>
        <path class="cls-2" d="M4.29,106.91a10.8,10.8,0,0,1-8.59,0L-25.71,96.15a8.57,8.57,0,0,1-4.29-7V68.68a8.57,8.57,0,0,1,4.29-7L-4.29,50.94a10.8,10.8,0,0,1,8.59,0L25.71,61.7a8.57,8.57,0,0,1,4.29,7v20.5a8.57,8.57,0,0,1-4.29,7Z"/>
        <path class="cls-3" d="M17.55,70.11C2.8,71.93-8.26,78.65-17.55,87.74"/>
        <path class="cls-2" d="M71.29,106.91a10.8,10.8,0,0,1-8.59,0L41.29,96.15a8.57,8.57,0,0,1-4.29-7V68.68a8.57,8.57,0,0,1,4.29-7L62.71,50.94a10.8,10.8,0,0,1,8.59,0L92.71,61.7a8.57,8.57,0,0,1,4.29,7v20.5a8.57,8.57,0,0,1-4.29,7Z"/>
        <path class="cls-3" d="M49.45,70.11c14.75,1.82,25.81,8.55,35.1,17.63"/>
        <path class="cls-2" d="M137.29,106.91a10.8,10.8,0,0,1-8.59,0L107.29,96.15a8.57,8.57,0,0,1-4.29-7V68.68a8.57,8.57,0,0,1,4.29-7l21.41-10.76a10.8,10.8,0,0,1,8.59,0L158.71,61.7a8.57,8.57,0,0,1,4.29,7v20.5a8.57,8.57,0,0,1-4.29,7Z"/>
        <path class="cls-3" d="M150.55,70.11c-14.75,1.82-25.81,8.55-35.1,17.63"/>
        <path class="cls-2" d="M204.29,106.91a10.8,10.8,0,0,1-8.59,0L174.29,96.15a8.57,8.57,0,0,1-4.29-7V68.68a8.57,8.57,0,0,1,4.29-7l21.41-10.76a10.8,10.8,0,0,1,8.59,0L225.71,61.7a8.57,8.57,0,0,1,4.29,7v20.5a8.57,8.57,0,0,1-4.29,7Z"/>
        <path class="cls-3" d="M182.45,70.11c14.75,1.82,25.81,8.55,35.1,17.63"/>
        <path class="cls-2" d="M37.79,56.86a10.8,10.8,0,0,1-8.59,0L7.79,46.1a8.57,8.57,0,0,1-4.29-7V18.63a8.57,8.57,0,0,1,4.29-7L29.21,0.89a10.8,10.8,0,0,1,8.59,0L59.21,11.65a8.57,8.57,0,0,1,4.29,7v20.5a8.57,8.57,0,0,1-4.29,7Z"/>
        <path class="cls-3" d="M51.05,20.06C36.3,21.88,25.24,28.6,15.95,37.69"/>
        <path class="cls-2" d="M104.79,56.86a10.8,10.8,0,0,1-8.59,0L74.79,46.1a8.57,8.57,0,0,1-4.29-7V18.63a8.57,8.57,0,0,1,4.29-7L96.21,0.89a10.8,10.8,0,0,1,8.59,0l21.41,10.76a8.57,8.57,0,0,1,4.29,7v20.5a8.57,8.57,0,0,1-4.29,7Z"/>
        <path class="cls-3" d="M82.95,20.06c14.75,1.82,25.81,8.55,35.1,17.63"/>
        <path class="cls-2" d="M170.79,56.86a10.8,10.8,0,0,1-8.59,0L140.79,46.1a8.57,8.57,0,0,1-4.29-7V18.63a8.57,8.57,0,0,1,4.29-7L162.21,0.89a10.8,10.8,0,0,1,8.59,0l21.41,10.76a8.57,8.57,0,0,1,4.29,7v20.5a8.57,8.57,0,0,1-4.29,7Z"/>
        <path class="cls-3" d="M184.05,20.06c-14.75,1.82-25.81,8.55-35.1,17.63"/>
      </g>
      <g>
        <path class="cls-2" d="M4.29,207a10.8,10.8,0,0,1-8.59,0l-21.41-10.76a8.57,8.57,0,0,1-4.29-7v-20.5a8.57,8.57,0,0,1,4.29-7L-4.29,151a10.8,10.8,0,0,1,8.59,0L25.71,161.8a8.57,8.57,0,0,1,4.29,7v20.5a8.57,8.57,0,0,1-4.29,7Z"/>
        <path class="cls-3" d="M17.55,170.21C2.8,172-8.26,178.75-17.55,187.84"/>
        <path class="cls-2" d="M4.29,106.91a10.8,10.8,0,0,1-8.59,0L-25.71,96.15a8.57,8.57,0,0,1-4.29-7V68.68a8.57,8.57,0,0,1,4.29-7L-4.29,50.94a10.8,10.8,0,0,1,8.59,0L25.71,61.7a8.57,8.57,0,0,1,4.29,7v20.5a8.57,8.57,0,0,1-4.29,7Z"/>
        <path class="cls-3" d="M-17.55,70.11c14.75,1.82,25.81,8.55,35.1,17.63"/>
      </g>
      <path class="cls-2" d="M204.29,7a10.8,10.8,0,0,1-8.59,0L174.29-3.75a8.57,8.57,0,0,1-4.29-7v-20.5a8.57,8.57,0,0,1,4.29-7L195.71-49a10.8,10.8,0,0,1,8.59,0L225.71-38.2a8.57,8.57,0,0,1,4.29,7v20.5a8.57,8.57,0,0,1-4.29,7Z"/>
      <g>
        <path class="cls-2" d="M4.29,7A10.8,10.8,0,0,1-4.29,7L-25.71-3.75a8.57,8.57,0,0,1-4.29-7v-20.5a8.57,8.57,0,0,1,4.29-7L-4.29-49a10.8,10.8,0,0,1,8.59,0L25.71-38.2a8.57,8.57,0,0,1,4.29,7v20.5a8.57,8.57,0,0,1-4.29,7Z"/>
        <path class="cls-2" d="M71.29,7a10.8,10.8,0,0,1-8.59,0L41.29-3.75a8.57,8.57,0,0,1-4.29-7v-20.5a8.57,8.57,0,0,1,4.29-7L62.71-49a10.8,10.8,0,0,1,8.59,0L92.71-38.2a8.57,8.57,0,0,1,4.29,7v20.5a8.57,8.57,0,0,1-4.29,7Z"/>
        <path class="cls-2" d="M137.29,7a10.8,10.8,0,0,1-8.59,0L107.29-3.75a8.57,8.57,0,0,1-4.29-7v-20.5a8.57,8.57,0,0,1,4.29-7L128.71-49a10.8,10.8,0,0,1,8.59,0L158.71-38.2a8.57,8.57,0,0,1,4.29,7v20.5a8.57,8.57,0,0,1-4.29,7Z"/>
        <path class="cls-2" d="M204.29,7a10.8,10.8,0,0,1-8.59,0L174.29-3.75a8.57,8.57,0,0,1-4.29-7v-20.5a8.57,8.57,0,0,1,4.29-7L195.71-49a10.8,10.8,0,0,1,8.59,0L225.71-38.2a8.57,8.57,0,0,1,4.29,7v20.5a8.57,8.57,0,0,1-4.29,7Z"/>
      </g>
      <path class="cls-2" d="M4.29,7A10.8,10.8,0,0,1-4.29,7L-25.71-3.75a8.57,8.57,0,0,1-4.29-7v-20.5a8.57,8.57,0,0,1,4.29-7L-4.29-49a10.8,10.8,0,0,1,8.59,0L25.71-38.2a8.57,8.57,0,0,1,4.29,7v20.5a8.57,8.57,0,0,1-4.29,7Z"/>
    </pattern>
  </defs>
  <title>pattern-javascript</title>
  <rect class="cls-5" width="100%" height="100%"/>
</svg>
