<svg id="Layer_1" data-name="Layer 1" xmlns="http://www.w3.org/2000/svg" viewBox="0 0 250 110"><defs><style>.cls-1{fill:#fff;}.cls-2,.cls-3{fill:none;stroke:#fff;stroke-linecap:round;stroke-miterlimit:10;}.cls-2{stroke-width:3px;}</style></defs><title>_</title><path class="cls-1" d="M52.94,58.13A3.5,3.5,0,0,0,54,59.41a2.27,2.27,0,0,0,1.27.42,1.93,1.93,0,0,0,1.57-.64,3.74,3.74,0,0,0,.53-2.33v-11h3.82V57.17a8.06,8.06,0,0,1-.33,2.31,5.35,5.35,0,0,1-1,1.9,4.63,4.63,0,0,1-1.69,1.27,5.82,5.82,0,0,1-2.43.47,6.47,6.47,0,0,1-3.26-.75,6,6,0,0,1-2.2-2.31Z"/><path class="cls-1" d="M73.77,58.78H68.6l-1,4h-3.9l5.3-17h4.6l5.3,17H74.81Zm-0.78-3L72.6,54.23q-0.36-1.27-.7-2.7t-0.68-2.76h-0.1l-0.64,2.77q-0.33,1.42-.69,2.69l-0.42,1.56H73Z"/><path class="cls-1" d="M79.05,45.86h4.06l2,7.9q0.39,1.4.69,2.72t0.69,2.72h0.1q0.36-1.4.68-2.72T88,53.76l2-7.9h3.9l-5.1,17h-4.6Z"/><path class="cls-1" d="M104.16,58.78H99l-1,4H94l5.3-17H104l5.3,17H105.2Zm-0.78-3L103,54.23q-0.36-1.27-.7-2.7t-0.68-2.76h-0.1l-0.64,2.77q-0.33,1.42-.69,2.69l-0.42,1.56h3.61Z"/><path class="cls-1" d="M113.69,58.05a8.25,8.25,0,0,0,2,1.27,5.28,5.28,0,0,0,2.17.49,2.94,2.94,0,0,0,1.78-.44,1.42,1.42,0,0,0,.58-1.2,1.31,1.31,0,0,0-.17-0.68,1.62,1.62,0,0,0-.49-0.51,4.65,4.65,0,0,0-.78-0.42l-1-.43-2.21-.94a6.55,6.55,0,0,1-1.26-.68,5.55,5.55,0,0,1-1.09-1,4.38,4.38,0,0,1-.77-1.3,4.62,4.62,0,0,1-.29-1.68,4.48,4.48,0,0,1,.44-2A4.88,4.88,0,0,1,113.87,47a6,6,0,0,1,1.91-1.08,7.26,7.26,0,0,1,2.43-.39,7.89,7.89,0,0,1,2.92.57,7.42,7.42,0,0,1,2.54,1.66l-2,2.42a7.42,7.42,0,0,0-1.66-1,4.71,4.71,0,0,0-1.85-.35,2.73,2.73,0,0,0-1.57.4,1.29,1.29,0,0,0-.58,1.13,1.11,1.11,0,0,0,.19.66,1.9,1.9,0,0,0,.55.49,5.41,5.41,0,0,0,.82.42l1,0.43,2.18,0.88A6,6,0,0,1,123.27,55a4.4,4.4,0,0,1,.9,2.89,4.81,4.81,0,0,1-1.68,3.68,6.22,6.22,0,0,1-2,1.14,8,8,0,0,1-2.7.43,9.49,9.49,0,0,1-3.31-.61,8.65,8.65,0,0,1-3-1.83Z"/><path class="cls-1" d="M127.23,54.44a10.19,10.19,0,0,1,.65-3.76,8.39,8.39,0,0,1,1.75-2.79,7.45,7.45,0,0,1,2.57-1.74,8.17,8.17,0,0,1,3.11-.6,6.18,6.18,0,0,1,2.87.66,8.16,8.16,0,0,1,2.15,1.55l-2.11,2.37a5.94,5.94,0,0,0-1.31-.94,3.37,3.37,0,0,0-1.55-.34,3.69,3.69,0,0,0-1.65.38,4,4,0,0,0-1.34,1.08,5.19,5.19,0,0,0-.9,1.72,7.48,7.48,0,0,0-.32,2.29,6.51,6.51,0,0,0,1.12,4.07,3.59,3.59,0,0,0,3,1.44,3.81,3.81,0,0,0,1.82-.42,5.26,5.26,0,0,0,1.4-1.09l2.11,2.31a6.85,6.85,0,0,1-5.38,2.5,8.55,8.55,0,0,1-3.09-.56,7.21,7.21,0,0,1-2.55-1.65,7.66,7.66,0,0,1-1.72-2.72A10.44,10.44,0,0,1,127.23,54.44Z"/><path class="cls-1" d="M153.18,62.81l-3.25-6.11h-2.11v6.11H144v-17h6.11a11.83,11.83,0,0,1,2.54.26,5.78,5.78,0,0,1,2.07.87,4.36,4.36,0,0,1,1.4,1.63,5.5,5.5,0,0,1,.52,2.52,5.38,5.38,0,0,1-.82,3.08,5,5,0,0,1-2.2,1.81l3.85,6.79h-4.29Zm-5.36-9.15h2a3.6,3.6,0,0,0,2.3-.64,2.27,2.27,0,0,0,.79-1.88,1.89,1.89,0,0,0-.79-1.74,4.39,4.39,0,0,0-2.3-.49h-2v4.76Z"/><path class="cls-1" d="M160.91,45.86h3.82v17h-3.82v-17Z"/><path class="cls-1" d="M169.6,45.86h6.19a11.69,11.69,0,0,1,2.59.27,5.79,5.79,0,0,1,2.11.91,4.44,4.44,0,0,1,1.42,1.69,6.59,6.59,0,0,1,0,5.16,5,5,0,0,1-1.44,1.79,6.14,6.14,0,0,1-2.11,1,9.32,9.32,0,0,1-2.55.34h-2.37v5.75H169.6v-17Zm6,8.16q3.12,0,3.12-2.7a2.11,2.11,0,0,0-.79-1.87,4.11,4.11,0,0,0-2.33-.55h-2.13V54h2.13Z"/><path class="cls-1" d="M189.89,49.08h-4.65V45.86h13.16v3.22h-4.65V62.81h-3.85V49.08Z"/><path class="cls-1" d="M102.51,5h2.62v7.72h3.75v2.2h-6.37V5Z"/><path class="cls-1" d="M110.7,5h6.4v2.2h-3.78V8.74h3.23v2.2h-3.23v1.77h3.93v2.2H110.7V5Z"/><path class="cls-1" d="M124.51,12.8h-2.78l-0.49,2.11h-2.68l3-9.91h3.17l3,9.91H125Zm-0.47-2-0.17-.69q-0.18-.72-0.37-1.56t-0.37-1.59h-0.06q-0.17.76-.34,1.59t-0.36,1.55l-0.17.69H124Z"/><path class="cls-1" d="M134.55,14.9l-1.71-3.33h-1V14.9h-2.62V5H133a7.36,7.36,0,0,1,1.52.15,3.53,3.53,0,0,1,1.27.52,2.62,2.62,0,0,1,.86,1,3.34,3.34,0,0,1,.32,1.55A3.31,3.31,0,0,1,136.5,10a3.06,3.06,0,0,1-1.17,1.1l2.15,3.84h-2.93Zm-2.71-5.4h0.95q1.59,0,1.59-1.31a1,1,0,0,0-.4-0.88,2.32,2.32,0,0,0-1.18-.24h-0.95V9.51Z"/><path class="cls-1" d="M139.11,5h2.68L144,9.41l0.95,2.23H145q0-.4-0.11-0.87t-0.11-1q0-.5-0.08-1t0-1V5h2.5V14.9h-2.68l-2.2-4.44-0.95-2.21h-0.06q0.09,0.85.21,1.86a16,16,0,0,1,.12,1.92V14.9h-2.5V5Z"/><path class="cls-2" d="M90,15H16a1,1,0,0,0-1,1V94a1,1,0,0,0,1,1H65"/><path class="cls-2" d="M90,5H8A3,3,0,0,0,5,8v94a3,3,0,0,0,3,3H65"/><path class="cls-2" d="M160,15h74a1,1,0,0,1,1,1V94a1,1,0,0,1-1,1H185"/><path class="cls-2" d="M160,5h82a3,3,0,0,1,3,3v94a3,3,0,0,1-3,3H185"/><path class="cls-1" d="M99.88,95.09h2.62v3.69h3V95.09h2.62V105h-2.62v-3.93h-3V105H99.88V95.09Z"/><path class="cls-1" d="M115.46,102.9h-2.78L112.2,105h-2.68l3-9.91h3.17l3,9.91H116Zm-0.47-2-0.17-.69q-0.18-.72-0.37-1.56T114.09,97H114q-0.17.76-.34,1.59t-0.36,1.55l-0.17.69H115Z"/><path class="cls-1" d="M125.51,105l-1.71-3.32h-1V105h-2.62V95.09h3.75a7.36,7.36,0,0,1,1.52.15,3.55,3.55,0,0,1,1.27.52,2.62,2.62,0,0,1,.86,1,3.35,3.35,0,0,1,.32,1.55,3.3,3.3,0,0,1-.43,1.77,3.06,3.06,0,0,1-1.17,1.1l2.15,3.84h-2.93Zm-2.71-5.4h0.95q1.59,0,1.59-1.31a1,1,0,0,0-.4-0.88,2.32,2.32,0,0,0-1.18-.24h-0.95V99.6Z"/><path class="cls-1" d="M130.06,95.09H133a7.39,7.39,0,0,1,2.07.27,4.15,4.15,0,0,1,1.61.87,4,4,0,0,1,1,1.52,6,6,0,0,1,.37,2.24,6.24,6.24,0,0,1-.37,2.26,4.07,4.07,0,0,1-1,1.56,4.16,4.16,0,0,1-1.57.9,6.48,6.48,0,0,1-2,.29h-3.08V95.09Zm2.78,7.81a3.77,3.77,0,0,0,1-.13,1.92,1.92,0,0,0,.82-0.45,2.17,2.17,0,0,0,.54-0.88,4.39,4.39,0,0,0,.2-1.43,4.25,4.25,0,0,0-.2-1.42,2,2,0,0,0-.54-0.85,1.87,1.87,0,0,0-.82-0.42,4.27,4.27,0,0,0-1-.12h-0.15v5.7h0.15Z"/><path class="cls-1" d="M142.72,95.09h2.68L146,99.42c0.05,0.52.11,1,.17,1.56s0.12,1,.17,1.55h0.06l0.27-1.55,0.27-1.56,0.95-4.33H150L151,99.42q0.14,0.75.27,1.53l0.27,1.58h0.06c0.05-.53.11-1.05,0.17-1.57s0.12-1,.17-1.54l0.55-4.33H155L153.34,105H150l-0.76-3.93c-0.08-.39-0.15-0.78-0.21-1.17l-0.16-1.14h-0.06l-0.16,1.14c-0.06.4-.12,0.79-0.21,1.17L147.72,105h-3.26Z"/><path class="cls-1" d="M161.23,102.9h-2.78L158,105h-2.68l3-9.91h3.17l3,9.91h-2.78Zm-0.47-2-0.17-.69q-0.18-.72-0.37-1.56T159.86,97H159.8q-0.17.76-.34,1.59t-0.36,1.55l-0.17.69h1.83Z"/><path class="cls-1" d="M167.06,101.58l-3-6.5h2.81l0.73,2.07c0.12,0.38.24,0.74,0.37,1.1l0.38,1.11h0.06l0.39-1.11,0.39-1.1,0.73-2.07h2.75l-3,6.5V105h-2.62v-3.42Z"/><path class="cls-1" d="M79.61,97.29H78L78.23,96h4.88l-0.26,1.34H81.21l-1,5.16h-1.6Z"/><path class="cls-1" d="M84.13,96h1.6l-0.5,2.44h1.94L87.65,96h1.6l-1.3,6.5h-1.6l0.54-2.66H85l-0.52,2.66h-1.6Z"/><path class="cls-1" d="M90.77,96h4l-0.26,1.34H92.09l-0.22,1.14h2l-0.26,1.34h-2l-0.28,1.34h2.46l-0.26,1.34H89.47Z"/><line class="cls-3" x1="77.81" y1="104.5" x2="93.81" y2="104.5"/></svg>