<svg id="Layer_1" data-name="Layer 1" xmlns="http://www.w3.org/2000/svg" viewBox="0 0 250 110"><defs><style>.cls-1{fill:#fff;}.cls-2,.cls-3{fill:none;stroke:#fff;stroke-linecap:round;stroke-miterlimit:10;}.cls-2{stroke-width:3px;}</style></defs><title>_</title><path class="cls-1" d="M96.47,45.86h3.85v9.49a6,6,0,0,0,.75,3.48,2.58,2.58,0,0,0,2.18,1,2.65,2.65,0,0,0,2.21-1,5.8,5.8,0,0,0,.78-3.48V45.86h3.69V55q0,4.26-1.7,6.21a6.26,6.26,0,0,1-5,1.95,6.41,6.41,0,0,1-5-1.95q-1.74-2-1.74-6.21v-9.1Z"/><path class="cls-1" d="M114.7,45.86h3.93L123,54.28,124.71,58h0.1q-0.13-1.35-.3-3a31.41,31.41,0,0,1-.17-3.17v-6H128v17h-3.93l-4.42-8.45L118,50.67h-0.1q0.13,1.4.3,3a30.05,30.05,0,0,1,.17,3.12v6H114.7v-17Z"/><path class="cls-1" d="M132.85,45.86h3.82v17h-3.82v-17Z"/><path class="cls-1" d="M144.64,54.1l-4.42-8.24h4.26l1.48,3.2q0.29,0.6.57,1.26t0.65,1.47h0.1q0.29-.81.56-1.47t0.53-1.26l1.35-3.2h4.08l-4.39,8.42,4.68,8.53h-4.26l-1.69-3.46L147.54,58l-0.66-1.44h-0.1q-0.29.78-.57,1.44l-0.57,1.34L144,62.81h-4.11Z"/><path class="cls-1" d="M102.51,5h2.62v7.72h3.75v2.2h-6.37V5Z"/><path class="cls-1" d="M110.7,5h6.4v2.2h-3.78V8.74h3.23v2.2h-3.23v1.77h3.93v2.2H110.7V5Z"/><path class="cls-1" d="M124.51,12.8h-2.78l-0.49,2.1h-2.68l3-9.91h3.17l3,9.91H125Zm-0.47-2-0.17-.69q-0.18-.72-0.37-1.56t-0.37-1.59h-0.06q-0.17.76-.34,1.59t-0.36,1.55l-0.17.69H124Z"/><path class="cls-1" d="M134.55,14.9l-1.71-3.32h-1V14.9h-2.62V5H133a7.36,7.36,0,0,1,1.52.15,3.54,3.54,0,0,1,1.27.52,2.62,2.62,0,0,1,.86,1,3.34,3.34,0,0,1,.32,1.55A3.31,3.31,0,0,1,136.5,10a3.07,3.07,0,0,1-1.17,1.1l2.15,3.84h-2.93Zm-2.71-5.4h0.95q1.59,0,1.59-1.31a1,1,0,0,0-.4-0.88,2.32,2.32,0,0,0-1.18-.24h-0.95V9.51Z"/><path class="cls-1" d="M139.11,5h2.68L144,9.41l0.95,2.23H145q0-.4-0.11-0.87t-0.11-1q0-.5-0.08-1t0-1V5h2.5V14.9h-2.68l-2.2-4.44-0.95-2.21h-0.06q0.09,0.85.21,1.86a16,16,0,0,1,.12,1.92V14.9h-2.5V5Z"/><path class="cls-2" d="M90,15H16a1,1,0,0,0-1,1V94a1,1,0,0,0,1,1H65"/><path class="cls-2" d="M90,5H8A3,3,0,0,0,5,8v94a3,3,0,0,0,3,3H65"/><path class="cls-2" d="M160,15h74a1,1,0,0,1,1,1V94a1,1,0,0,1-1,1H185"/><path class="cls-2" d="M160,5h82a3,3,0,0,1,3,3v94a3,3,0,0,1-3,3H185"/><path class="cls-1" d="M99.88,95.09h2.62v3.69h3V95.09h2.62V105h-2.62v-3.93h-3V105H99.88V95.09Z"/><path class="cls-1" d="M115.46,102.9h-2.78L112.2,105h-2.68l3-9.91h3.17l3,9.91H116Zm-0.47-2-0.17-.69q-0.18-.72-0.37-1.56T114.09,97H114q-0.17.76-.34,1.59t-0.36,1.55l-0.17.69H115Z"/><path class="cls-1" d="M125.51,105l-1.71-3.32h-1V105h-2.62V95.09h3.75a7.36,7.36,0,0,1,1.52.15,3.54,3.54,0,0,1,1.27.52,2.62,2.62,0,0,1,.86,1,3.34,3.34,0,0,1,.32,1.55,3.31,3.31,0,0,1-.43,1.77,3.07,3.07,0,0,1-1.17,1.1l2.15,3.84h-2.93Zm-2.71-5.4h0.95q1.59,0,1.59-1.31a1,1,0,0,0-.4-0.88,2.32,2.32,0,0,0-1.18-.24h-0.95V99.6Z"/><path class="cls-1" d="M130.06,95.09H133a7.35,7.35,0,0,1,2.07.27,4.14,4.14,0,0,1,1.61.87,4,4,0,0,1,1,1.52,6,6,0,0,1,.37,2.24,6.25,6.25,0,0,1-.37,2.26,4.07,4.07,0,0,1-1,1.56,4.16,4.16,0,0,1-1.57.9,6.47,6.47,0,0,1-2,.29h-3.08V95.09Zm2.78,7.81a3.79,3.79,0,0,0,1-.13,1.92,1.92,0,0,0,.82-0.45,2.16,2.16,0,0,0,.54-0.88,4.4,4.4,0,0,0,.2-1.43,4.26,4.26,0,0,0-.2-1.42,2,2,0,0,0-.54-0.85,1.87,1.87,0,0,0-.82-0.42,4.27,4.27,0,0,0-1-.11h-0.15v5.7h0.15Z"/><path class="cls-1" d="M142.72,95.09h2.68L146,99.42q0.08,0.78.17,1.56t0.17,1.56h0.06l0.27-1.56,0.27-1.56,0.95-4.33H150L151,99.42q0.14,0.75.27,1.53l0.27,1.58h0.06q0.08-.79.17-1.57t0.17-1.54l0.55-4.33H155L153.34,105H150l-0.76-3.93q-0.12-.58-0.21-1.17l-0.16-1.14h-0.06l-0.16,1.14q-0.08.59-.21,1.17L147.72,105h-3.26Z"/><path class="cls-1" d="M161.23,102.9h-2.78L158,105h-2.68l3-9.91h3.17l3,9.91h-2.78Zm-0.47-2-0.17-.69q-0.18-.72-0.37-1.56T159.86,97H159.8q-0.17.76-.34,1.59t-0.36,1.55l-0.17.69h1.83Z"/><path class="cls-1" d="M167.06,101.58l-3-6.5h2.81l0.73,2.07q0.18,0.56.37,1.1l0.38,1.11h0.06l0.39-1.11,0.39-1.1,0.73-2.07h2.75l-3,6.5V105h-2.62v-3.42Z"/><path class="cls-1" d="M79.61,97.29H78L78.23,96h4.88l-0.26,1.34H81.21l-1,5.16h-1.6Z"/><path class="cls-1" d="M84.13,96h1.6l-0.5,2.44h1.94L87.65,96h1.6l-1.3,6.5h-1.6l0.54-2.66H85l-0.52,2.66h-1.6Z"/><path class="cls-1" d="M90.77,96h4l-0.26,1.34H92.09l-0.22,1.14h2l-0.26,1.34h-2l-0.28,1.34h2.46l-0.26,1.34H89.47Z"/><line class="cls-3" x1="77.81" y1="104.5" x2="93.81" y2="104.5"/></svg>