<svg id="Layer_1" data-name="Layer 1" xmlns="http://www.w3.org/2000/svg" viewBox="0 0 250 110"><defs><style>.cls-1{fill:#fff;}.cls-2,.cls-3{fill:none;stroke:#fff;stroke-linecap:round;stroke-miterlimit:10;}.cls-2{stroke-width:3px;}</style></defs><title>_</title><path class="cls-1" d="M103.85,58.05a8.22,8.22,0,0,0,2,1.27,5.28,5.28,0,0,0,2.17.49,2.94,2.94,0,0,0,1.78-.44,1.42,1.42,0,0,0,.58-1.2,1.3,1.3,0,0,0-.17-0.68,1.62,1.62,0,0,0-.49-0.51,4.79,4.79,0,0,0-.78-0.42l-1-.43-2.21-.94a6.49,6.49,0,0,1-1.26-.68,5.55,5.55,0,0,1-1.09-1,4.39,4.39,0,0,1-.77-1.3,4.62,4.62,0,0,1-.29-1.68,4.48,4.48,0,0,1,.44-2A4.88,4.88,0,0,1,104,47a6,6,0,0,1,1.91-1.08,7.26,7.26,0,0,1,2.43-.39,7.89,7.89,0,0,1,2.92.57,7.39,7.39,0,0,1,2.54,1.66l-2,2.42a7.39,7.39,0,0,0-1.66-1,4.73,4.73,0,0,0-1.85-.35,2.74,2.74,0,0,0-1.57.4,1.3,1.3,0,0,0-.58,1.13,1.12,1.12,0,0,0,.19.66,1.9,1.9,0,0,0,.55.49,5.32,5.32,0,0,0,.82.42l1,0.43L111,53.27A6,6,0,0,1,113.43,55a4.41,4.41,0,0,1,.9,2.89,4.81,4.81,0,0,1-1.68,3.68,6.2,6.2,0,0,1-2,1.14,8,8,0,0,1-2.7.43,9.47,9.47,0,0,1-3.31-.61,8.64,8.64,0,0,1-3-1.83Z"/><path class="cls-1" d="M133.66,66.89a5,5,0,0,1-1.24.39,8.9,8.9,0,0,1-1.75.16,8,8,0,0,1-4.56-1.25,7.68,7.68,0,0,1-2.77-3.25,7.26,7.26,0,0,1-2.46-1A6.78,6.78,0,0,1,119,60.11a8.56,8.56,0,0,1-1.2-2.59,12,12,0,0,1-.42-3.26,11.35,11.35,0,0,1,.56-3.71,7.65,7.65,0,0,1,1.57-2.73,6.74,6.74,0,0,1,2.43-1.69,8.67,8.67,0,0,1,6.27,0,6.66,6.66,0,0,1,2.43,1.7,7.78,7.78,0,0,1,1.57,2.74,11.28,11.28,0,0,1,.56,3.68,10.06,10.06,0,0,1-1.46,5.64,6.8,6.8,0,0,1-3.93,2.91A3.14,3.14,0,0,0,129,64a6.43,6.43,0,0,0,2.11.35,5.54,5.54,0,0,0,1-.09,6,6,0,0,0,.84-0.22ZM121.31,54.26a7.54,7.54,0,0,0,1,4.24,3.27,3.27,0,0,0,5.51,0,7.54,7.54,0,0,0,1-4.24,6.78,6.78,0,0,0-1-4,3.37,3.37,0,0,0-5.51,0A6.78,6.78,0,0,0,121.31,54.26Z"/><path class="cls-1" d="M136.74,45.86h3.82V59.59h6.71v3.22H136.74v-17Z"/><path class="cls-1" d="M102.51,5h2.62v7.72h3.75v2.2h-6.37V5Z"/><path class="cls-1" d="M110.7,5h6.4v2.2h-3.78V8.74h3.23v2.2h-3.23v1.77h3.93v2.2H110.7V5Z"/><path class="cls-1" d="M124.51,12.8h-2.78l-0.49,2.1h-2.68l3-9.91h3.17l3,9.91H125Zm-0.47-2-0.17-.69q-0.18-.72-0.37-1.56t-0.37-1.59h-0.06q-0.17.76-.34,1.59t-0.36,1.55l-0.17.69H124Z"/><path class="cls-1" d="M134.55,14.9l-1.71-3.32h-1V14.9h-2.62V5H133a7.36,7.36,0,0,1,1.52.15,3.54,3.54,0,0,1,1.27.52,2.62,2.62,0,0,1,.86,1,3.34,3.34,0,0,1,.32,1.55A3.31,3.31,0,0,1,136.5,10a3.07,3.07,0,0,1-1.17,1.1l2.15,3.84h-2.93Zm-2.71-5.4h0.95q1.59,0,1.59-1.31a1,1,0,0,0-.4-0.88,2.32,2.32,0,0,0-1.18-.24h-0.95V9.51Z"/><path class="cls-1" d="M139.11,5h2.68L144,9.41l0.95,2.23H145q0-.4-0.11-0.87t-0.11-1q0-.5-0.08-1t0-1V5h2.5V14.9h-2.68l-2.2-4.44-0.95-2.21h-0.06q0.09,0.85.21,1.86a16,16,0,0,1,.12,1.92V14.9h-2.5V5Z"/><path class="cls-2" d="M90,15H16a1,1,0,0,0-1,1V94a1,1,0,0,0,1,1H65"/><path class="cls-2" d="M90,5H8A3,3,0,0,0,5,8v94a3,3,0,0,0,3,3H65"/><path class="cls-2" d="M160,15h74a1,1,0,0,1,1,1V94a1,1,0,0,1-1,1H185"/><path class="cls-2" d="M160,5h82a3,3,0,0,1,3,3v94a3,3,0,0,1-3,3H185"/><path class="cls-1" d="M99.88,95.09h2.62v3.69h3V95.09h2.62V105h-2.62v-3.93h-3V105H99.88V95.09Z"/><path class="cls-1" d="M115.46,102.9h-2.78L112.2,105h-2.68l3-9.91h3.17l3,9.91H116Zm-0.47-2-0.17-.69q-0.18-.72-0.37-1.56T114.09,97H114q-0.17.76-.34,1.59t-0.36,1.55l-0.17.69H115Z"/><path class="cls-1" d="M125.51,105l-1.71-3.32h-1V105h-2.62V95.09h3.75a7.36,7.36,0,0,1,1.52.15,3.55,3.55,0,0,1,1.27.52,2.62,2.62,0,0,1,.86,1,3.35,3.35,0,0,1,.32,1.55,3.3,3.3,0,0,1-.43,1.77,3.06,3.06,0,0,1-1.17,1.1l2.15,3.84h-2.93Zm-2.71-5.4h0.95q1.59,0,1.59-1.31a1,1,0,0,0-.4-0.88,2.32,2.32,0,0,0-1.18-.24h-0.95V99.6Z"/><path class="cls-1" d="M130.06,95.09H133a7.39,7.39,0,0,1,2.07.27,4.15,4.15,0,0,1,1.61.87,4,4,0,0,1,1,1.52,6,6,0,0,1,.37,2.24,6.24,6.24,0,0,1-.37,2.26,4.07,4.07,0,0,1-1,1.56,4.16,4.16,0,0,1-1.57.9,6.48,6.48,0,0,1-2,.29h-3.08V95.09Zm2.78,7.81a3.77,3.77,0,0,0,1-.13,1.92,1.92,0,0,0,.82-0.45,2.17,2.17,0,0,0,.54-0.88,4.39,4.39,0,0,0,.2-1.43,4.25,4.25,0,0,0-.2-1.42,2,2,0,0,0-.54-0.85,1.87,1.87,0,0,0-.82-0.42,4.27,4.27,0,0,0-1-.12h-0.15v5.7h0.15Z"/><path class="cls-1" d="M142.72,95.09h2.68L146,99.42c0.05,0.52.11,1,.17,1.56s0.12,1,.17,1.55h0.06l0.27-1.55,0.27-1.56,0.95-4.33H150L151,99.42q0.14,0.75.27,1.53l0.27,1.58h0.06c0.05-.53.11-1.05,0.17-1.57s0.12-1,.17-1.54l0.55-4.33H155L153.34,105H150l-0.76-3.93c-0.08-.39-0.15-0.78-0.21-1.17l-0.16-1.14h-0.06l-0.16,1.14c-0.06.4-.12,0.79-0.21,1.17L147.72,105h-3.26Z"/><path class="cls-1" d="M161.23,102.9h-2.78L158,105h-2.68l3-9.91h3.17l3,9.91h-2.78Zm-0.47-2-0.17-.69q-0.18-.72-0.37-1.56T159.86,97H159.8q-0.17.76-.34,1.59t-0.36,1.55l-0.17.69h1.83Z"/><path class="cls-1" d="M167.06,101.58l-3-6.5h2.81l0.73,2.07c0.12,0.38.24,0.74,0.37,1.1l0.38,1.11h0.06l0.39-1.11,0.39-1.1,0.73-2.07h2.75l-3,6.5V105h-2.62v-3.42Z"/><path class="cls-1" d="M79.61,97.29H78L78.23,96h4.88l-0.26,1.34H81.21l-1,5.16h-1.6Z"/><path class="cls-1" d="M84.13,96h1.6l-0.5,2.44h1.94L87.65,96h1.6l-1.3,6.5h-1.6l0.54-2.66H85l-0.52,2.66h-1.6Z"/><path class="cls-1" d="M90.77,96h4l-0.26,1.34H92.09l-0.22,1.14h2l-0.26,1.34h-2l-0.28,1.34h2.46l-0.26,1.34H89.47Z"/><line class="cls-3" x1="77.81" y1="104.5" x2="93.81" y2="104.5"/></svg>