<svg id="Layer_1" data-name="Layer 1" xmlns="http://www.w3.org/2000/svg" xmlns:xlink="http://www.w3.org/1999/xlink" viewBox="0 0 200 200">
  <defs>
    <style>
      .cls-1 {
        fill: none;
      }

      .cls-2, .cls-3, .cls-5 {
        fill: #edaa00;
      }

      .cls-2, .cls-3 {
        stroke: #f5b901;
        stroke-width: 10px;
      }

      .cls-2 {
        stroke-miterlimit: 10;
      }

      .cls-3 {
        stroke-linejoin: round;
      }

      .cls-4 {
        fill: #f5b901;
      }

      .cls-6 {
        fill: url(#New_Pattern_3);
      }
    </style>
    <pattern id="New_Pattern_3" data-name="New Pattern 3" x="-230" width="100%" height="100%" patternUnits="userSpaceOnUse" viewBox="0 0 200 200">
      <rect class="cls-1" width="100%" height="100%"/>
      <path class="cls-2" d="M150,225c0-13.81-22.39-25-50-25s-50,11.19-50,25v25c0,13.81,22.39,25,50,25s50-11.19,50-25V225Z"/>
      <g>
        <g>
          <path class="cls-3" d="M250,100c0-13.81-22.39-25-50-25s-50,11.19-50,25v25c0,13.81,22.39,25,50,25s50-11.19,50-25V100Z"/>
          <path class="cls-3" d="M250,75c0-13.81-22.39-25-50-25s-50,11.19-50,25v25c0,13.81,22.39,25,50,25s50-11.19,50-25V75Z"/>
          <ellipse class="cls-4" cx="200" cy="75" rx="50" ry="25"/>
        </g>
        <g>
          <path class="cls-3" d="M250,200c0-13.81-22.39-25-50-25s-50,11.19-50,25v25c0,13.81,22.39,25,50,25s50-11.19,50-25V200Z"/>
          <path class="cls-3" d="M250,175c0-13.81-22.39-25-50-25s-50,11.19-50,25v25c0,13.81,22.39,25,50,25s50-11.19,50-25V175Z"/>
          <ellipse class="cls-4" cx="200" cy="175" rx="50" ry="25"/>
        </g>
      </g>
      <g>
        <rect class="cls-5" width="100%" height="100%"/>
        <g>
          <path class="cls-3" d="M250,100c0-13.81-22.39-25-50-25s-50,11.19-50,25v25c0,13.81,22.39,25,50,25s50-11.19,50-25V100Z"/>
          <path class="cls-3" d="M250,75c0-13.81-22.39-25-50-25s-50,11.19-50,25v25c0,13.81,22.39,25,50,25s50-11.19,50-25V75Z"/>
          <ellipse class="cls-4" cx="200" cy="75" rx="50" ry="25"/>
        </g>
        <g>
          <path class="cls-2" d="M150,150c0-13.81-22.39-25-50-25s-50,11.19-50,25v25c0,13.81,22.39,25,50,25s50-11.19,50-25V150Z"/>
          <path class="cls-2" d="M150,125c0-13.81-22.39-25-50-25s-50,11.19-50,25v25c0,13.81,22.39,25,50,25s50-11.19,50-25V125Z"/>
          <ellipse class="cls-4" cx="100" cy="125" rx="50" ry="25"/>
        </g>
        <g>
          <path class="cls-3" d="M250,200c0-13.81-22.39-25-50-25s-50,11.19-50,25v25c0,13.81,22.39,25,50,25s50-11.19,50-25V200Z"/>
          <path class="cls-3" d="M250,175c0-13.81-22.39-25-50-25s-50,11.19-50,25v25c0,13.81,22.39,25,50,25s50-11.19,50-25V175Z"/>
          <ellipse class="cls-4" cx="200" cy="175" rx="50" ry="25"/>
        </g>
        <g>
          <path class="cls-3" d="M50,100C50,86.19,27.61,75,0,75s-50,11.19-50,25v25c0,13.81,22.39,25,50,25s50-11.19,50-25V100Z"/>
          <path class="cls-3" d="M50,75C50,61.19,27.61,50,0,50S-50,61.19-50,75v25c0,13.81,22.39,25,50,25s50-11.19,50-25V75Z"/>
          <ellipse class="cls-4" cy="75" rx="50" ry="25"/>
        </g>
        <g>
          <path class="cls-3" d="M50,200c0-13.81-22.39-25-50-25s-50,11.19-50,25v25c0,13.81,22.39,25,50,25s50-11.19,50-25V200Z"/>
          <path class="cls-3" d="M50,175c0-13.81-22.39-25-50-25s-50,11.19-50,25v25c0,13.81,22.39,25,50,25s50-11.19,50-25V175Z"/>
          <ellipse class="cls-4" cy="175" rx="50" ry="25"/>
        </g>
        <g>
          <path class="cls-2" d="M150,50c0-13.81-22.39-25-50-25S50,36.19,50,50V75c0,13.81,22.39,25,50,25s50-11.19,50-25V50Z"/>
          <path class="cls-2" d="M150,25c0-13.81-22.39-25-50-25S50,11.19,50,25V50c0,13.81,22.39,25,50,25s50-11.19,50-25V25Z"/>
          <ellipse class="cls-4" cx="100" cy="25" rx="50" ry="25"/>
        </g>
      </g>
      <g>
        <g>
          <path class="cls-3" d="M50,100C50,86.19,27.61,75,0,75s-50,11.19-50,25v25c0,13.81,22.39,25,50,25s50-11.19,50-25V100Z"/>
          <path class="cls-3" d="M50,75C50,61.19,27.61,50,0,50S-50,61.19-50,75v25c0,13.81,22.39,25,50,25s50-11.19,50-25V75Z"/>
          <ellipse class="cls-4" cy="75" rx="50" ry="25"/>
        </g>
        <g>
          <path class="cls-3" d="M50,200c0-13.81-22.39-25-50-25s-50,11.19-50,25v25c0,13.81,22.39,25,50,25s50-11.19,50-25V200Z"/>
          <path class="cls-3" d="M50,175c0-13.81-22.39-25-50-25s-50,11.19-50,25v25c0,13.81,22.39,25,50,25s50-11.19,50-25V175Z"/>
          <ellipse class="cls-4" cy="175" rx="50" ry="25"/>
        </g>
      </g>
      <g>
        <path class="cls-3" d="M250,0c0-13.81-22.39-25-50-25S150-13.81,150,0V25c0,13.81,22.39,25,50,25s50-11.19,50-25V0Z"/>
        <path class="cls-3" d="M250-25c0-13.81-22.39-25-50-25s-50,11.19-50,25V0c0,13.81,22.39,25,50,25s50-11.19,50-25V-25Z"/>
      </g>
      <g>
        <path class="cls-2" d="M150-50c0-13.81-22.39-25-50-25S50-63.81,50-50v25C50-11.19,72.39,0,100,0s50-11.19,50-25V-50Z"/>
        <g>
          <path class="cls-3" d="M250,0c0-13.81-22.39-25-50-25S150-13.81,150,0V25c0,13.81,22.39,25,50,25s50-11.19,50-25V0Z"/>
          <path class="cls-3" d="M250-25c0-13.81-22.39-25-50-25s-50,11.19-50,25V0c0,13.81,22.39,25,50,25s50-11.19,50-25V-25Z"/>
        </g>
        <g>
          <path class="cls-3" d="M50,0C50-13.81,27.61-25,0-25S-50-13.81-50,0V25c0,13.81,22.39,25,50,25S50,38.81,50,25V0Z"/>
          <path class="cls-3" d="M50-25C50-38.81,27.61-50,0-50S-50-38.81-50-25V0c0,13.81,22.39,25,50,25S50,13.81,50,0V-25Z"/>
        </g>
      </g>
      <g>
        <path class="cls-3" d="M50,0C50-13.81,27.61-25,0-25S-50-13.81-50,0V25c0,13.81,22.39,25,50,25S50,38.81,50,25V0Z"/>
        <path class="cls-3" d="M50-25C50-38.81,27.61-50,0-50S-50-38.81-50-25V0c0,13.81,22.39,25,50,25S50,13.81,50,0V-25Z"/>
      </g>
    </pattern>
  </defs>
  <title>pattern-sql</title>
  <rect class="cls-6" width="100%" height="100%"/>
</svg>
